<svg xmlns="http://www.w3.org/2000/svg" viewBox="0 0 100 100">
  <defs>
    <style>
      .cls-1 { fill: #595959; }
      .cls-2 { fill: #cd1d1d; }
      .cls-3 { fill: #0e0202; }
      .cls-4 { fill: #efeeee; }
    </style>
  </defs>
  <g>
    <!-- Versione semplificata del logo per favicon -->
    <path class="cls-1" d="M20,80c-8,0-15-3-20-8c-3-3-5-7-5-12c0-5,2-9,5-12c3-3,7-5,12-5c5,0,9,2,12,5c3,3,5,7,5,12c0,5-2,9-5,12C29,77,25,80,20,80z"/>
    <path class="cls-2" d="M50,20c-5,0-10,2-13,5c-3,3-5,8-5,13c0,5,2,10,5,13c3,3,8,5,13,5c5,0,10-2,13-5c3-3,5-8,5-13c0-5-2-10-5-13C60,22,55,20,50,20z"/>
    <path class="cls-3" d="M80,80c-8,0-15-3-20-8c-3-3-5-7-5-12c0-5,2-9,5-12c3-3,7-5,12-5c5,0,9,2,12,5c3,3,5,7,5,12c0,5-2,9-5,12C89,77,85,80,80,80z"/>
    <path class="cls-4" d="M50,50m-8,0a8,8,0,1,1,16,0a8,8,0,1,1,-16,0"/>
  </g>
</svg>
