<svg xmlns="http://www.w3.org/2000/svg" viewBox="0 0 1742.4 868.36">
  <defs>
    <style>
      .cls-1 {
        fill: #595959;
      }

      .cls-2 {
        fill: #cd1d1d;
      }

      .cls-3 {
        fill: #0e0202;
      }

      .cls-4 {
        fill: #0d0202;
      }

      .cls-5 {
        fill: #0c0202;
      }

      .cls-6 {
        fill: #0f0202;
      }

      .cls-7 {
        fill: #100202;
      }

      .cls-8 {
        fill: #efeeee;
      }

      .cls-9 {
        fill: #cf2424;
      }

      .cls-10 {
        fill: #010101;
      }

      .cls-11 {
        fill: #020202;
      }

      .cls-12 {
        fill: #060606;
      }

      .cls-13 {
        fill: #030303;
      }

      .cls-14 {
        fill: #050505;
      }

      .cls-15 {
        fill: #040404;
      }

      .cls-16 {
        fill: #efecec;
      }

      .cls-17 {
        fill: #eaeaea;
      }

      .cls-18 {
        fill: #e6e6e6;
      }

      .cls-19 {
        fill: #ededed;
      }

      .cls-20 {
        fill: #ebebeb;
      }

      .cls-21 {
        fill: #dfdfdf;
      }

      .cls-22 {
        fill: #dedede;
      }

      .cls-23 {
        fill: #e5e5e5;
      }
    </style>
  </defs>
  <g id="Livello_1" data-name="Livello 1">
    <g>
      <path class="cls-1" d="M31.92,643.46a35.84,35.84,0,0,1-18.81-5.34C3.72,632.44-.39,617.44,5,608.45c1.25-2.06,2.52-4.08,3.79-6.1a142.5,142.5,0,0,0,8.45-14.62q.72-1.53,1.32-3.21c-6.82,1.13-13.85,2.27-21,3l-3.67.38A232.65,232.65,0,0,1-30,589.54c-1.85,0-3.66,0-5.4-.13-12.84-.63-27.4-1.34-41.63-6.12-10-3.36-16.49-10.93-17.88-20.77a20.18,20.18,0,0,1,1.5-10.93c-2.37.16-4.77.26-7.19.26A72.41,72.41,0,0,1-114,550.68c-2.84-.53-5.83-.85-9-1.18a101.86,101.86,0,0,1-14.25-2.22c-11.38-2.83-22.57-6.53-33-10.1a138.13,138.13,0,0,1-37.09-19.46,107.91,107.91,0,0,1-15.44-13.91,25.67,25.67,0,0,1-6.47-22.43,26.06,26.06,0,0,1,14.69-18.59c3.82-1.82,7.77-3.31,11.48-4.67,1.82-.68,3.64-1.28,5.41-1.85l1.8-.59a176.47,176.47,0,0,1-17.34-3.44c-13.23-3.46-26.18-7.82-38.32-12-15.67-5.38-29.48-13.63-42.27-21.63a262.28,262.28,0,0,1-55.09-45.87,88.67,88.67,0,0,1-11.88-16.36,23,23,0,0,1-1.06-21,23.65,23.65,0,0,1,17.18-13.15c3.34-.66,6.56-1,9.68-1.34,2.31-.24,4.49-.47,6.57-.82,5.39-.89,10.83-1.84,16.23-2.81-1.1-.77-2.19-1.55-3.28-2.36-11.66-8.71-22.87-17.74-33.32-26.84-16.09-13.92-29-30.36-39.49-44.61-5.18-7-10.82-15.5-12.2-26.71a20.62,20.62,0,0,1,5.05-16.39A26.09,26.09,0,0,1-377.56,192c-5.44-5.07-11-10.31-16.27-15.94-1.94-2.1-3.9-4.17-5.86-6.25-9.76-10.35-19.85-21-27.87-33.74a188.88,188.88,0,0,1-11.1-20.56c-5.09-10.77-3-21,5.89-28.74a19.42,19.42,0,0,1,13.12-5,34.26,34.26,0,0,1,10.51,2l.72.23c7,2.19,14,4.51,20.75,6.76,7.73,2.56,15.71,5.21,23.57,7.63l4.86,1.5c19,5.84,38.59,11.88,58,17A169.21,169.21,0,0,0-281,120.65c3.24.45,6.6.91,9.93,1.46l8.17,1.36,12.78,2.11c-4-6.79-7.84-13.78-11.4-20.82a20.5,20.5,0,0,1,3-22.94,20.27,20.27,0,0,1,15.29-7,22.58,22.58,0,0,1,9.1,2c7.54,3.29,15.07,6.78,22.35,10.16l3.67,1.69A389.09,389.09,0,0,0-143,112.48c4.76,1.24,9.63,2.56,14.34,3.83,9.25,2.51,18.82,5.1,28.22,7.28A283,283,0,0,0-69.48,129,239.49,239.49,0,0,0-42.67,131c1.9,0,3.76,0,5.53-.13,12.8-.61,26-2.83,37.41-4.86,13.45-2.37,27.11-5.56,40.33-8.64l.27-.06c14.84-3.46,27-5.07,38.2-5.07,1.39,0,2.79,0,4.15.08,23,.86,52.95,3.79,81.22,19,17.1,9.21,30.13,21.54,38.72,36.66l.05.09a68.54,68.54,0,0,1,8.53,30.76c.41,9-.89,17.44-2.14,25.58q-.49,3.17-.95,6.33c-1.42,10.08-1.2,20.87.73,35,2.12,15.85,8,30.55,14.12,46.11.79,2,1.6,4,2.39,6.06,1.49,3.8,3.08,7.68,4.62,11.44,5.51,13.39,11.2,27.24,14.2,42.25,1.09,5.38,2,11.3,2.81,18.61.11,1,.22,1.93.33,2.87.59,5.06,1.25,10.8.56,16.65-1.63,13.64-3.62,25.69-6.08,36.84-4.36,19.66-13.52,37.27-21.76,52.24l-.93,1.67c-5.86,10.59-11.92,21.54-19.88,31.23-10.32,12.51-22,23.8-33.35,34.72l-1.34,1.3c-5.38,5.17-11.13,9.79-16.7,14.26-2.59,2.08-5.27,4.24-7.82,6.37a8.47,8.47,0,0,1-.76.58h0C133.47,600.64,123.15,607.2,114,613l-2.11,1.34c-18.63,12-34.83,19.55-51,23.86a158,158,0,0,1-25.69,5.09l-.26,0C34,643.41,32.94,643.46,31.92,643.46ZM57.51,525a19.37,19.37,0,0,0,5.56.8,19.66,19.66,0,0,0,3.67-.34,113.37,113.37,0,0,0,53.34-26.64c5.06-4.48,10-9.42,14.82-14.2L136,483.5c3.24-3.2,6.56-6.28,9.77-9.26,7.44-6.9,14.46-13.42,20.07-20.81,16.08-21.2,25.76-42.14,29.58-64a89.8,89.8,0,0,0-3.66-45.95c-4.05-11.37-8.82-22.88-13.43-34l-.45-1.11c-8.15-19.67-11.15-38.34-9.19-57.06.16-1.5.32-3,.49-4.5.63-5.84,1.24-11.35,1.46-16.87.52-11.61-5.06-21.18-17.56-30.16-14.64-10.51-32.72-15.4-56.9-15.4-1.27,0-2.54,0-3.81,0-8.65.18-17.5,2.07-26.87,4.07-3.27.69-6.64,1.41-10,2-3.18.61-6.44,1.29-9.59,2-11.61,2.42-23.62,4.92-36.4,4.92-16.22,0-33.32-2.35-53.81-7.4-23.61-5.8-54.45-14.46-83.68-30l-.13-.06q-.65-.36-1.32-.66c.7,1.36,1.47,2.69,2.3,4l.14.22c2.17,3.56,4.49,7.09,7,10.83,1.1,1.68,2.22,3.38,3.36,5.14a10,10,0,0,1,.68,9.65,10,10,0,0,1-7.82,5.71,32.94,32.94,0,0,1-4.21.27h-.8a9.81,9.81,0,0,1-1.09-.09l-5.43-.7c-5.72-.72-11.64-1.47-17.56-2.62q-4.22-.82-8.44-1.62c-12.28-2.34-25-4.76-37.41-8.14-11-3-21.79-6.61-32.26-10.14-5.39-1.82-11-3.7-16.44-5.44l-.93-.3c-2.46-.79-4.84-1.55-7.13-2.13A68.85,68.85,0,0,0-249,176.2c11,15.73,25.48,29.26,39.35,41.78,2,1.78,3.91,3.58,5.85,5.39l2.84,2.63a10,10,0,0,1,2.66,10.65l-.35,1a10,10,0,0,1-9.44,6.7,9.49,9.49,0,0,1-1.67-.14l-7-1.18c-1.52-.26-3-.56-4.5-.86-2.36-.47-4.62-.92-6.7-1.14a15.3,15.3,0,0,0,1.56,3.39,181.69,181.69,0,0,0,42.7,46c5.19,3.91,10.74,7.66,16.61,11.63,2.9,2,5.88,4,9,6.1a10,10,0,0,1,4.06,10.43,10,10,0,0,1-8.15,7.67L-169,327.4c-7.61,1.24-14.79,2.41-22,3.56-1.63.27-3.21.46-4.74.64a56.24,56.24,0,0,0-6,.92,55.24,55.24,0,0,0,6.5,8.63c9.43,10.44,21.2,20,36.05,29.43a152.9,152.9,0,0,0,50.43,20.56c7.54,1.6,15,3,23,4.47l8,1.48a10,10,0,0,1,7.9,7.62A10,10,0,0,1-73.74,415,88,88,0,0,1-98,427.55a58.71,58.71,0,0,0-9.25,3.94,3.82,3.82,0,0,0,0,.68c0,.71,1.93,2.45,3,3.39,10.73,9.61,24.18,16.27,43.6,21.58a103.65,103.65,0,0,0,27.84,4A86.06,86.06,0,0,0-18,459.85c2-.35,4-.77,6.11-1.21L-9,458a9.76,9.76,0,0,1,2-.2,10,10,0,0,1,9.18,6.05l.43,1A10,10,0,0,1-1,477.15l-3,2c-2.27,1.52-4.61,3.09-7,4.62l-.3.21,3.55.95c4.58,1.24,8.9,2.42,12.85,2.62,5.18.28,9.42.41,13.38.41a108.69,108.69,0,0,0,25.76-2.66c3.39-.79,6.63-1.28,9.77-1.76,1.45-.22,2.91-.44,4.35-.69a10.83,10.83,0,0,1,1.7-.14,10,10,0,0,1,6.05,2l1.21.92a10,10,0,0,1,3.27,11.59c-.64,1.63-1.26,3.28-1.88,4.92-1.56,4.14-3.17,8.41-5.08,12.64a45.72,45.72,0,0,1-4.06,6.9c-.76,1.13-1.48,2.2-2,3.16Z" transform="translate(441.38 116.58)"/>
      <path class="cls-1" d="M826,643.21c-15.26,0-29.4-5.14-41.46-10a197.42,197.42,0,0,1-46.43-25.81c-.95-.72-1.85-1.37-2.75-2-5.08-3.67-11.3-8.17-14.83-16-2.72-2.24-5.57-4.51-8.33-6.71-6.32-5.05-12.85-10.27-19-15.9s-11.71-11.56-17.13-17.35c-2-2.09-3.91-4.18-5.89-6.25-8.86-9.27-15.73-19.54-21.84-29.26a314.32,314.32,0,0,1-26.11-52.54c-4.3-11-7.21-22.92-9.43-38.69-3-21.27-1.16-41.69,5.39-60.7,3.43-9.95,7.25-19.85,10.95-29.43,3-7.76,6.09-15.79,8.91-23.68l1.6-4.48c4.07-11.32,8.27-23,10.81-34.55,2.18-9.93,2.18-20.7,1.89-29.93a144.29,144.29,0,0,0-2-17.44c-.64-4.14-1.31-8.43-1.75-12.8a72.22,72.22,0,0,1,.3-17.26,70.57,70.57,0,0,1,10.72-28.68A91.77,91.77,0,0,1,685,138a127.75,127.75,0,0,1,47.35-19.86c8.07-1.64,15.51-2.87,22.7-3.77l1-.14a166.75,166.75,0,0,1,21.77-1.88l1.65,0c13,.24,26.61,2,43,5.46q10.9,2.31,21.83,4.57c9.45,2,19.23,4,28.84,6.06a148.32,148.32,0,0,0,29.79,3c3.84,0,7.74-.15,11.57-.45a251.87,251.87,0,0,0,35.73-5.15c19.61-4.2,37.29-8.6,54.12-13.44a439.83,439.83,0,0,0,42.14-14.6c8.41-3.38,16.87-7.4,25-11.28,5-2.37,10.15-4.82,15.32-7.13a49.58,49.58,0,0,1,13.1-4l.12,0a24.44,24.44,0,0,1,3.5-.25,19.66,19.66,0,0,1,16.92,9,21.57,21.57,0,0,1,1.29,20.41l-.09.18a233.81,233.81,0,0,1-11.4,21.06c5.47-.83,10.83-1.69,15.67-2.47,2.86-.47,5.72-.91,8.59-1.35,7.46-1.15,15.18-2.35,22.54-3.9,22.17-4.72,43.93-11.65,62.28-17.81,11.22-3.77,22.65-7.41,33.7-10.93q7.35-2.34,14.69-4.7a63,63,0,0,1,6.29-2l.52-.12a22.76,22.76,0,0,1,4.56-.46,21.62,21.62,0,0,1,16.63,7.78,22.9,22.9,0,0,1,4.85,18.79C1298,123.35,1289.49,134.34,1282,144l-.08.11a352.9,352.9,0,0,1-23.39,26.57c-6.29,6.62-13.18,13.59-21.27,21.5a24.77,24.77,0,0,1,7.39,1.23C1257,197.51,1263,209,1259.58,222c-2.8,10.49-8.66,18.72-14,25.39-9.36,11.6-19.4,23.08-30.72,35.12-13.48,14.32-28.85,25.84-43.44,35.45,6.64,1.13,13.34,2.05,20.35,3l.29,0c1.34.19,2.85.27,4.46.36a57,57,0,0,1,8.32.89A23.65,23.65,0,0,1,1222,335.33a23.06,23.06,0,0,1-.94,21,79.85,79.85,0,0,1-10.68,15.35,261.31,261.31,0,0,1-51.6,44.2c-25.88,16.78-50.64,27.87-75.72,33.91-8.78,2.12-17.9,4.26-27.21,6,1.57.6,3.14,1.14,4.72,1.64a84.18,84.18,0,0,1,17.34,7.63,24.16,24.16,0,0,1,11.46,15.52,25.54,25.54,0,0,1-3.75,19.72c-7.42,11.17-18,18-28.13,24.06a184.67,184.67,0,0,1-41.36,18.13c-12,3.65-26.33,7.49-41.7,8.29-1.72.09-3.5.24-5.37.4-3.2.28-6.51.56-10,.56-1.24,0-2.41,0-3.56-.11l-2-.15a21,21,0,0,1,1.75,9.92c-.72,10-6.69,18-15.58,20.78l-1.65.53c-6.1,2-12.41,4-19.26,4.76a278.84,278.84,0,0,1-31.23,2.11c-1.38,0-2.76,0-4.14,0-10-.25-19.82-1.69-29.34-3.08-1.94-.28-3.87-.57-5.81-.84-2.15-.3-4.26-.67-6.34-1.08,3.33,7.6,7.74,15,12.32,22.57l.15.25a21.85,21.85,0,0,1,1.15,21c-3.64,7.57-11.45,13-20.39,14.22A68.14,68.14,0,0,1,826,643.21ZM764,184.32l-1.49,0c-9.36.17-18.91,2-27,3.68-15.92,3.37-28.09,10.14-37.21,20.7-7.43,8.6-9.74,19.16-7.27,33.22,2.67,15.25,2.55,29.06-.36,42.25-3.23,14.61-8.85,28.15-14.28,41.25-.72,1.74-1.44,3.47-2.15,5.21-4.45,10.82-8.52,21.42-9.43,32.22-1.56,18.44,1,35,7.72,50.5,10.79,24.86,24,44.37,40.42,59.67,3.29,3.07,6.71,6,10.32,9.06a209.6,209.6,0,0,1,18.05,16.68c10.75,11.58,26,18.18,40.85,23.59a50.09,50.09,0,0,0,17.2,3.41c1,0,2,0,3-.12a6.18,6.18,0,0,0,1.31-.24,5.29,5.29,0,0,0-.42-1.13c-.25-.46-.64-1.06-1-1.69a34.43,34.43,0,0,1-2.38-4.07c-2.57-5.37-5-10.76-7.66-16.45l-2.41-5.24a10,10,0,0,1,9.07-14.19c.34,0,.68,0,1,.05,1,.1,1.86.17,2.62.23a36.37,36.37,0,0,1,5.07.63c10.85,2.32,22.51,4.46,34.21,4.46h1.35c11.74-.18,20.62-1.29,28.79-3.62a6.14,6.14,0,0,0,.74-.26,8.54,8.54,0,0,0-.75-.52c-2.48-1.55-4.78-3.09-7-4.58l-2.7-1.8a10,10,0,0,1-3.54-12.59l.27-.56a9.89,9.89,0,0,1,9.21-6.19,10.55,10.55,0,0,1,1.76.15l1.1.18c1.08.17,2.31.37,3.65.7A75.27,75.27,0,0,0,893,461.08a105.06,105.06,0,0,0,15.23-1.18,125.47,125.47,0,0,0,45.11-15.47c5.61-3.26,11.42-6.9,15-12.08a2.32,2.32,0,0,0,.38-.79l-.16-.11a44.89,44.89,0,0,0-9.13-3.92l-.32-.1a90.11,90.11,0,0,1-24.45-12.77,10,10,0,0,1,4.14-17.89c3.92-.71,7.81-1.36,11.57-2,7.94-1.32,15.45-2.57,22.76-4.35,31.92-7.78,60.44-24.88,84.76-50.81a37.76,37.76,0,0,0,5.07-7.1,25.44,25.44,0,0,0-3.79-.65l-.6-.08q-12.64-2-25.31-3.89l-8.79-1.34a10,10,0,0,1-8.48-10.36l.06-1.26a10,10,0,0,1,4.51-7.9l6-3.86c4.47-2.88,8.7-5.6,12.85-8.5,16.34-11.44,30.63-25.68,43.66-43.53a56.4,56.4,0,0,0,5.84-10.19,26.25,26.25,0,0,0-2.8.42l-.45.08c-3.47.54-6.94,1.12-10.72,1.75l-4.9.81a10,10,0,0,1-9.53-16,39.85,39.85,0,0,1,2.89-3.33c.22-.22.44-.43.67-.63,17.77-15.26,31.09-28.61,41.93-42l.43-.53c4.84-6,9.44-11.73,11.22-18.15-5.1,1.62-10.26,3.34-15.26,5-7.72,2.57-15.69,5.22-23.69,7.6-14.72,4.39-29.15,8.6-43.82,11.9-8.66,1.95-17.47,3.2-26,4.4-3.71.52-7.54,1.06-11.25,1.65l-9.06,1.38a10.67,10.67,0,0,1-1.49.11,10,10,0,0,1-8.83-5.31,5.86,5.86,0,0,0-.31-.57,10,10,0,0,1,.29-10.69l1.31-1.92c.81-1.15,1.56-2.24,2.16-3.26,1.06-1.76,2.12-3.49,3.19-5.21,1.83-3,3.6-5.84,5.18-8.69l-1.71.71c-4.38,1.87-8.89,3.91-13.26,5.89-8.41,3.8-17.11,7.74-26.1,11A404.19,404.19,0,0,1,878,195.6a134.26,134.26,0,0,1-42.28.73h-.1c-9-1.37-17.87-3.3-26.46-5.17-6.57-1.43-13.37-2.91-20-4.08C781.08,185.64,772.45,184.32,764,184.32Z" transform="translate(441.38 116.58)"/>
      <path class="cls-1" d="M63.17,545.77A39.67,39.67,0,0,1,51,543.86c-8.09-2.69-11.46-7.55-12.86-11.15s-2.26-9.73,2.05-17.53c1-1.72,2-3.25,2.91-4.61a29.66,29.66,0,0,0,2.42-4l.51-1.15A132.17,132.17,0,0,1,18.48,508c-4.31,0-8.9-.14-14.43-.43-6.07-.32-11.64-1.83-17-3.3-1.39-.38-2.78-.75-4.17-1.1A19.35,19.35,0,0,1-31.83,485.4a18.52,18.52,0,0,1,.15-4.22h-1.27a123.59,123.59,0,0,1-33.12-4.71c-14-3.84-34.6-10.73-51.64-26.12-3.35-3-9.56-8.64-9.56-18.21,0-8.21,3.74-14.71,10.54-18.3,1.88-1,3.81-1.94,5.78-2.79l-1.9-.41a172.48,172.48,0,0,1-56.93-23.22c-16.46-10.4-29.59-21.15-40.14-32.85a75.45,75.45,0,0,1-9.73-13.28.41.41,0,0,1,0-.09,19.13,19.13,0,0,1-1.36-16.57,19.18,19.18,0,0,1,12.5-11A60.84,60.84,0,0,1-198,311.69c1.39-.17,2.71-.32,3.94-.52l4.08-.66c-1.91-1.36-3.8-2.74-5.69-4.16a201.71,201.71,0,0,1-47.47-51.2l-.1-.15a35.31,35.31,0,0,1-4.58-11.44,18.53,18.53,0,0,1,3.53-15.67,18.55,18.55,0,0,1,9.32-6.2c-11-10.44-21.4-21.35-30.31-34.07-4.69-6.74-8-14.4-10.6-21a16.91,16.91,0,0,1,2-15.69,17.63,17.63,0,0,1,14.48-7.9,16.26,16.26,0,0,1,1.85.1,80.88,80.88,0,0,1,15.4,3.8l.91.29c5.62,1.79,11.27,3.7,16.73,5.54,10.2,3.44,20.75,7,31.18,9.83,11.86,3.2,24.37,5.59,36.47,7.9L-149,172c1.44.28,2.88.53,4.33.77a66.37,66.37,0,0,1-5.05-10.08l-.09-.25c-2.36-6.42-1.81-12.6,1.54-17.4A17.24,17.24,0,0,1-133.8,138a24.53,24.53,0,0,1,3.87.32l.21,0a38,38,0,0,1,11.28,4c27.27,14.45,56.56,22.64,79,28.17,18.9,4.65,34.48,6.82,49,6.82,10.71,0,21.2-2.19,32.32-4.51,3.23-.67,6.58-1.37,9.92-2,3.14-.6,6.39-1.29,9.53-2,9.88-2.1,20.1-4.27,30.66-4.52,1.44,0,2.85,0,4.25,0,28.58,0,50.37,6.09,68.57,19.16,18,12.91,26.7,28.81,25.88,47.26-.26,6-.9,11.92-1.52,17.65-.18,1.64-.36,3.28-.52,4.92-1.62,15.35.92,30.83,7.77,47.35l.6,1.47c4.66,11.24,9.47,22.87,13.65,34.63a109.72,109.72,0,0,1,4.5,56.14c-4.32,24.94-15.23,48.71-33.33,72.59-6.65,8.77-14.65,16.19-22.39,23.37-3.1,2.88-6.31,5.86-9.31,8.82l-2.41,2.39c-4.58,4.53-9.31,9.21-14.3,13.65a133.57,133.57,0,0,1-62.82,31.33A40,40,0,0,1,63.17,545.77Z" transform="translate(441.38 116.58)"/>
      <path class="cls-1" d="M799.41,545.78a69.91,69.91,0,0,1-24-4.61c-17.19-6.25-35-14.06-48.66-28.77a189.09,189.09,0,0,0-16.38-15.08c-3.62-3.08-7.35-6.27-11-9.64-18.47-17.18-33.23-38.89-45.13-66.34-8-18.4-11.12-38.64-9.3-60.15,1.11-13.54,5.77-25.77,10.86-38.14.78-1.93,1.59-3.87,2.39-5.8,5.25-12.69,10.2-24.67,13-37.37,2.33-10.58,2.4-21.86.19-34.48-3.54-20.16.33-36.44,11.84-49.76,11.92-13.79,28.13-22.93,48.18-27.18,9.13-1.93,19.92-3.92,30.8-4.12l1.85,0c10,0,19.64,1.47,28.61,3.05,7,1.24,14,2.76,20.77,4.23,8.27,1.8,16.83,3.66,25.17,4.94a115.61,115.61,0,0,0,16,1.12,114.57,114.57,0,0,0,20-1.77l.15,0a384.69,384.69,0,0,0,67.4-17.35c8.26-3,16.27-6.61,24.75-10.45,4.42-2,9-4.07,13.58-6,3.33-1.43,7.51-3.23,12.22-3.74a22.9,22.9,0,0,1,2.52-.15c6.32,0,11.74,2.77,14.87,7.58s3.45,11,.84,16.85a101.06,101.06,0,0,1-5.21,9.92h.08c8.55-1.21,16.63-2.35,24.6-4.15,14-3.15,28.12-7.26,42.5-11.54,7.74-2.31,15.64-4.94,23.28-7.49,5-1.67,10.21-3.4,15.37-5a28,28,0,0,1,8.45-1.48,17.14,17.14,0,0,1,15.18,8.75l.16.28a20.78,20.78,0,0,1,2.32,13.23c0,.11,0,.22-.05.33-2.33,12.14-9.57,21.1-16,29l-.19.23a291.74,291.74,0,0,1-25.11,27.12,18.66,18.66,0,0,1,10.31,7.55,18.43,18.43,0,0,1,1.53,17.2,76.16,76.16,0,0,1-9,16.43,207.3,207.3,0,0,1-47.54,47.57l9.71,1.5a45.22,45.22,0,0,1,9.62,2.07c.22.07.43.15.64.24a19.09,19.09,0,0,1,11,11.06,18.53,18.53,0,0,1-1.18,15,57.92,57.92,0,0,1-8.78,12.76l-.11.12c-27.1,28.85-59,47.9-94.67,56.62-1.78.43-3.57.83-5.35,1.21a64.93,64.93,0,0,1,6.12,3.09l.23.13a20.14,20.14,0,0,1,9.42,13,21,21,0,0,1-3.42,16.36c-5.72,8.39-13.73,13.68-21.53,18.16a145.06,145.06,0,0,1-52.22,17.91A124.07,124.07,0,0,1,893,481.07h-.05a18.87,18.87,0,0,1,.18,4.39c-.75,8.8-6.62,15.57-15.7,18.17-9.93,2.84-20.42,4.19-34,4.38h-1.63a151.64,151.64,0,0,1-25.92-2.45l2,4.33c.17.35.61,1,1,1.67a35.14,35.14,0,0,1,2.2,3.7c3.45,6.87,3.54,14.19.22,20.07S811.7,545,804,545.6C802.48,545.72,800.94,545.78,799.41,545.78Z" transform="translate(441.38 116.58)"/>
      <path class="cls-1" d="M-28.79,270.25a50.74,50.74,0,0,1-7.33-.47l-4.52-.65c-14.65-2.11-29.8-4.28-44.65-7.47-33.82-7.26-63.54-17.45-90.88-31.17-8.52-4.27-16.6-9.31-24.41-14.18-2.54-1.58-5.09-3.17-7.65-4.73A32.55,32.55,0,0,1-215.9,205a9.31,9.31,0,0,1-.87-1.19,13.57,13.57,0,0,1-.62-13.17,10.34,10.34,0,0,1,1.56-2.26c3.48-3.81,8.09-3.81,9.83-3.81h1.08a11.22,11.22,0,0,1,7.45,3c20.86,15.7,46,27.8,81.34,39.18A393.53,393.53,0,0,0-43.62,242.9c7.87,1,15.79,1.58,21.8,2,4.81.34,8.46,2.15,10.84,5.38s3.05,7.29,1.94,12A10,10,0,0,1-18.77,270c-1.48,0-3,.06-4.63.12S-26.94,270.25-28.79,270.25Z" transform="translate(441.38 116.58)"/>
      <path class="cls-1" d="M-40.49,315.49c-44.68-.08-84.81-7.34-122.71-22.21-5.36-2.11-10.44-4.61-15.36-7-1.76-.87-3.53-1.74-5.3-2.59a18.41,18.41,0,0,1-6.67-4.62,8,8,0,0,1-.73-.9A17.71,17.71,0,0,1-194,272a7.15,7.15,0,0,0-.2-.7,10,10,0,0,1,1-8.55,10,10,0,0,1,7.13-4.59l.45-.11a17.91,17.91,0,0,1,4.32-.61,12.16,12.16,0,0,1,5.26,1.17c2.82,1.3,5.52,2.72,8.12,4.09,2.81,1.48,5.48,2.88,8.15,4.07a244.44,244.44,0,0,0,70.47,19.13c15.3,1.83,31.6,3,51.35,3.67q1.57.06,3.15.06c5.27,0,10.6-.41,16.23-.84,3.82-.29,7.76-.59,11.72-.76l.64-.07A25.32,25.32,0,0,1-3,287.76c7.4,0,12.77,5.09,13.05,12.38a12.83,12.83,0,0,1-3.35,9.32c-3.84,4.12-8.95,4.28-11.7,4.37l-.65,0c-7.62.41-15.38.76-22.89,1.1l-11.45.52h-.49Z" transform="translate(441.38 116.58)"/>
      <path class="cls-1" d="M-76.11,379.73q-.4,0-.81,0c-4.39-.36-8.79-.69-13.18-1-11.38-.87-23.14-1.76-34.75-3a84.15,84.15,0,0,1-14.09-3.08c-1.78-.51-3.47-1-5.13-1.39l-.17,0a12.06,12.06,0,0,1-7.41-4.63l-.09-.13a37.82,37.82,0,0,1-2.32-4c-.19-.37-.38-.74-.59-1.1a10,10,0,0,1-.36-8.94,10,10,0,0,1,6.93-5.66l.48-.16a17.08,17.08,0,0,1,5.53-1,12.94,12.94,0,0,1,2.41.22c2.85.54,5.59,1.21,8.24,1.86a86.18,86.18,0,0,0,11.36,2.25l2.86.29c13.35,1.35,27.15,2.75,40.47,2.75h.39c15.76,0,31.67-1.34,49.35-3,7.45-.67,14.78-1.78,22.53-2.95C-.07,346.32,4.46,345.64,9,345L9.5,345a24,24,0,0,1,3.71-.35A12.91,12.91,0,0,1,23.81,365c-3.27,4.46-8.19,5.15-10.55,5.48l-.46.07C-15,375-45,379.15-75.93,379.73Z" transform="translate(441.38 116.58)"/>
      <path class="cls-1" d="M-57.87,455.08a10,10,0,0,1-6.23-2.17l-3.33-2.66a10,10,0,0,1-3.77-7.57,10,10,0,0,1,3.39-7.76c.1-.1.27-.3.44-.49,1.43-1.59,4.09-4.55,8.53-5.29C-26.3,424.07,7.47,414,47.53,397.35a56.73,56.73,0,0,1,8.79-3.29l.54-.13a12.23,12.23,0,0,1,2.71-.3,16.58,16.58,0,0,1,5.86,1.22L66,395a9.94,9.94,0,0,1,6.19,14.41l-.18.44c-.77,1.86-2.37,5.72-6.72,7.69-8,3.63-15.83,7.15-24,10.25C10.74,439.41-17.48,447.7-45,453.17c-2.33.44-4.57.77-6.94,1.13-1.33.2-2.76.41-4.32.66A10.47,10.47,0,0,1-57.87,455.08Z" transform="translate(441.38 116.58)"/>
      <path class="cls-1" d="M9.07,221.15c-25.75,0-46.68-3.4-65.88-10.7l-.15-.06a109.32,109.32,0,0,1-12.28-5.82c-5.06-2.67-7-6.35-7.68-9a13,13,0,0,1,1.75-10.44,12.19,12.19,0,0,1,10.33-5.88,14.56,14.56,0,0,1,8,2.65l.37.23c10.69,6.28,22.86,9,34.41,11C-7.3,195.69,8,196,20.92,196c4.58,0,9.26,0,13.79-.09h1.21a55.61,55.61,0,0,0,7.35-.73c1.42-.21,2.85-.41,4.27-.57l.44-.09a18.36,18.36,0,0,1,3.9-.47,13.38,13.38,0,0,1,3.3.41,7.81,7.81,0,0,1,.82.26,35.34,35.34,0,0,1,6.69,3.18,10,10,0,0,1,.82,16.52l-.69.62a16.21,16.21,0,0,1-8.24,4.61l-.17,0A99.36,99.36,0,0,1,39.59,221c-2.69.06-5.58.09-9.09.09l-6.33,0-6.1,0C15,221.11,12,221.15,9.07,221.15Z" transform="translate(441.38 116.58)"/>
      <path class="cls-1" d="M9.93,492.56a12.13,12.13,0,0,1-11.29-7.64,12.93,12.93,0,0,1-.27-10.09c2.09-5.11,6.66-7,8.86-7.86l.26-.11A295.78,295.78,0,0,0,82.92,419l.41-.36a14.57,14.57,0,0,1,8.76-4.16q.41,0,.84,0a15.9,15.9,0,0,1,6.67,1.68c.35.16.74.33,1.16.49a10,10,0,0,1,4.49,15.4c-.44.58-.8,1.1-1.12,1.56a21,21,0,0,1-3.54,4.22A327.78,327.78,0,0,1,18.7,490.19a15.09,15.09,0,0,1-2.16.89l-.42.12-.42.15A15.94,15.94,0,0,1,9.93,492.56Z" transform="translate(441.38 116.58)"/>
      <path class="cls-1" d="M76.05,525.91a13.63,13.63,0,0,1-13.19-13.75c.3-5.77,4.36-9,6.31-10.54.17-.12.33-.25.47-.37a285.53,285.53,0,0,0,40-53.37l.33-.63c1.18-2.3,4.77-9.28,13.38-9.28a17.22,17.22,0,0,1,6,1.14,10,10,0,0,1,6.2,12c-.1.37-.17.75-.25,1.13a20.65,20.65,0,0,1-2.23,6.66A292.39,292.39,0,0,1,88,519.09c-.17.18-.34.39-.52.59C85.71,521.71,82.1,525.91,76.05,525.91Z" transform="translate(441.38 116.58)"/>
      <path class="cls-1" d="M883.16,271c-2.82,0-12.23-.94-14.65-13.11a10,10,0,0,1,8.3-11.84c1.31-.2,2.57-.42,3.81-.64a84.78,84.78,0,0,1,9-1.24c31.8-2.12,64.47-9.17,99.86-21.56,28.78-10.07,50.73-21.2,69.06-35,1.42-1.07,4.77-3.61,9.28-3.61a12.1,12.1,0,0,1,10.44,6.14l.06.12c3.47,6.07.25,14.7-4.83,18.07l-.12.08q-3.81,2.46-7.6,5c-8.66,5.69-17.62,11.58-27.21,16.45-30.58,15.52-63.86,26.59-101.72,33.84C926,265.75,915,267,904.37,268.23c-4.87.56-9.92,1.14-14.82,1.79a7,7,0,0,0-.73.18,24.35,24.35,0,0,1-3,.64A18.4,18.4,0,0,1,883.16,271Z" transform="translate(441.38 116.58)"/>
      <path class="cls-1" d="M901.1,315.49h-.43l-33.85-1.61h-.43a16.94,16.94,0,0,1-7.2-1.62,10.33,10.33,0,0,1-1.47-.87,16.4,16.4,0,0,1-4.43-4.91L853,306a10,10,0,0,1,2.16-14l.19-.17a13.05,13.05,0,0,1,8.76-3.74c2.83,0,5.49.23,8.07.45,1.16.1,2.32.2,3.49.27,8.71.55,17.37.83,25.72.83,42.6,0,80.61-7,116.2-21.35,4-1.59,7.84-3.6,12-5.73,1.67-.86,3.33-1.72,5-2.55l.17-.12a14.17,14.17,0,0,1,6.67-2.61c.42,0,.88-.06,1.37-.06,4.91,0,9.19,2.13,11.43,5.69a10.12,10.12,0,0,1,1,2.1,13.57,13.57,0,0,1-2.38,13,9.82,9.82,0,0,1-1.28,1.3,42.18,42.18,0,0,1-8.09,5.32c-20.69,10.79-44.38,18.7-72.44,24.18a347.37,347.37,0,0,1-68.12,6.75Z" transform="translate(441.38 116.58)"/>
      <path class="cls-1" d="M942,379h-4.44c-32.85,0-63-4.27-88.72-8.3a15.12,15.12,0,0,1-6.24-2,10.13,10.13,0,0,1-1.86-1.39,36.58,36.58,0,0,1-3.75-4.12,10,10,0,0,1,2.29-14.44l.3-.25a13.3,13.3,0,0,1,8.6-3.56,10.93,10.93,0,0,1,1.15.06c3.48.35,6.89.9,10.19,1.43,1.65.27,3.31.54,5,.78l4.62.68c5,.75,9.74,1.45,14.54,1.94l4.63.51c7.74.87,15.05,1.68,22.37,1.83,9.18.19,17.53.28,25.53.28,9.31,0,17.92-.12,26.32-.38a147,147,0,0,0,37.68-6.17,11.52,11.52,0,0,1,3.31-.48,14.86,14.86,0,0,1,6.86,1.91l.42.21a10,10,0,0,1,5,14.55c-.07.14-.14.3-.22.45-.89,1.87-2.75,5.77-7.35,7.46a84.88,84.88,0,0,1-13,3.64A267.25,267.25,0,0,1,942,379Z" transform="translate(441.38 116.58)"/>
      <path class="cls-1" d="M918.78,454.69c-.26,0-.6,0-.86,0a114.74,114.74,0,0,1-15.12-2.19,541.42,541.42,0,0,1-105.25-34l-.36-.16c-2.18-1-7.28-3.23-8.91-9.12-1.12-4-.19-8.22,2.77-12.44a10,10,0,0,1,11.88-3.54q5,2,9.86,3.94c7.09,2.85,13.79,5.55,20.65,8.15a481.77,481.77,0,0,0,82,23.35c.17,0,.54,0,.82,0a18.61,18.61,0,0,1,6.5,1.14,15.67,15.67,0,0,1,6.36,5c.13.17.26.33.4.48a10,10,0,0,1-1.4,15.15l-.37.32C926.33,452.05,923.3,454.69,918.78,454.69Z" transform="translate(441.38 116.58)"/>
      <path class="cls-1" d="M842.93,221.7h-.5L808.52,220h-.31a13.41,13.41,0,0,1-8.24-2.63,16.28,16.28,0,0,1-5.7-8.7,8.37,8.37,0,0,1-.21-1,10.5,10.5,0,0,1,2.57-8.54,14.24,14.24,0,0,1,10.16-5h.13c2.85,0,5.54.29,8.14.53,1.28.12,2.56.24,3.84.32l3.06.22c4.09.29,7.94.57,11.79.65s7.2.13,10.48.13c22.81,0,40-2.07,55.69-6.72a87.36,87.36,0,0,0,11.51-4.55c2.56-1.14,5.2-2.33,8-3.41a19.74,19.74,0,0,1,6.84-1.32,11.66,11.66,0,0,1,9,3.8l.08.09a12.73,12.73,0,0,1,2.93,11.28,14.18,14.18,0,0,1-8.49,9.62l-4.34,1.88a174.81,174.81,0,0,1-20.3,7.84c-20.66,6.19-42.07,7.12-62.12,7.2Z" transform="translate(441.38 116.58)"/>
      <path class="cls-1" d="M849.55,491.91a11.63,11.63,0,0,1-4.93-1.07l-1.25-.57c-8.81-4.06-17.93-8.25-26.71-13.07a304.62,304.62,0,0,1-55.59-39.08,19.14,19.14,0,0,1-5.14-8.51l-.19-.52c-.88-2.44-1.76-7.76,4.57-12.52.2-.15.42-.31.61-.48a10,10,0,0,1,12.3-.59c.48.35,1,.67,1.44,1a42,42,0,0,1,4.23,3.12,301.44,301.44,0,0,0,68.66,44.52c.62.29,1.38.6,2.19.92a37.14,37.14,0,0,1,6.76,3.34,15.3,15.3,0,0,1,5.4,6.93c.09.2.18.41.28.6a10,10,0,0,1-6.42,14.67l-.54.18A16.85,16.85,0,0,1,849.55,491.91Z" transform="translate(441.38 116.58)"/>
      <path class="cls-1" d="M784.82,525.42a11.52,11.52,0,0,1-2.82-.34l-.1,0a17,17,0,0,1-8-5.24l-.4-.41a292.17,292.17,0,0,1-42.7-56A58.4,58.4,0,0,1,727,457c-.11-.22-.21-.44-.31-.67a16.08,16.08,0,0,1-1-7c0-.19,0-.38,0-.57a10,10,0,0,1,10-10.39,10.55,10.55,0,0,1,1.76.15c.28,0,.57.08.86.11a18.13,18.13,0,0,1,7,2,14.41,14.41,0,0,1,5.89,6.67,4.71,4.71,0,0,0,.22.45,275,275,0,0,0,40.94,54.39c1.1,1.09,2,2.17,3.18,3.53.41.49.88,1,1.41,1.65a10,10,0,0,1-4.23,16c-.35.12-.79.32-1.25.52A15.59,15.59,0,0,1,784.82,525.42Z" transform="translate(441.38 116.58)"/>
      <g>
        <path d="M-64.48,537.66c-5.28.84-10.54,1.86-15.84,2.5-10.59,1.29-21.16,2.69-31.88.69-7.5-1.4-15.3-1.43-22.66-3.27-10.87-2.71-21.55-6.22-32.15-9.86a128,128,0,0,1-34.4-18.05,98,98,0,0,1-14-12.61c-7.29-7.93-5.18-20.33,5.14-25.24,3.45-1.64,7.06-3,10.64-4.32,4.65-1.74,9.55-2.91,14-5.11,6.89-3.42,13.45-7.5,21.17-11.88-6.53-1-11.83-1.8-17.1-2.7-9.73-1.66-19.61-2.75-29.12-5.24-12.7-3.33-25.19-7.51-37.61-11.77-14.37-4.93-27.4-12.64-40.22-20.65a252.11,252.11,0,0,1-53-44.13,77.56,77.56,0,0,1-10.55-14.53c-4.64-8.34-.07-17.59,9.37-19.48,5.24-1.05,10.65-1.22,15.94-2.11,12.11-2,24.19-4.25,36.28-6.41,1.36-.25,2.69-.66,4.71-1.16-8.32-5.37-16.37-10-23.72-15.48-11.19-8.36-22.16-17.16-32.73-26.36-14.55-12.59-26.61-27.54-38-43-4.8-6.53-9.27-13.39-10.33-22-1.23-9.93,10.09-14.79,16.81-13.3,8.82,1.95,17.74,3.39,26.62,5l.58-.91-14-12.37c-.61-.53-1.34-.94-1.92-1.5-8.05-7.7-16.48-15-24.05-23.2C-397.94,156.88-410,145-419.1,130.69a178.89,178.89,0,0,1-10.48-19.42c-3.28-6.94-1.93-12.38,3.38-17,4.75-4.15,9.92-2.2,14.79-.67,14.84,4.66,29.51,9.83,44.37,14.41,21,6.46,42,13,63.22,18.65,10.11,2.72,20.72,3.61,31.11,5.32,10.07,1.66,20.13,3.39,30.22,4.93,3.86.58,7.78.7,12.74,1.13-3.86-5.62-7.51-10.41-10.58-15.54q-6.54-10.9-12.29-22.26a10.4,10.4,0,0,1,1.56-11.75c3.42-3.86,8.18-4.61,12.94-2.53,8.67,3.79,17.24,7.8,25.82,11.77a398.09,398.09,0,0,0,66.76,24.41c14.3,3.73,28.5,7.86,42.89,11.19a291,291,0,0,0,32,5.63c11.26,1.29,22.7,2.43,34,1.88,13-.62,25.88-2.72,38.68-5,13.79-2.44,27.46-5.63,41.11-8.81,13.09-3,26.39-5.23,39.72-4.74,26.67,1,52.87,4.92,76.85,17.81,14.51,7.81,26.6,18.43,34.76,32.79a58.36,58.36,0,0,1,7.28,26.31c.48,10.27-1.61,20.12-3,30.14-1.78,12.57-1,25.1.72,37.73,2.58,19.22,10.15,36.7,17.11,54.47,6.71,17.13,14.69,33.83,18.33,52,1.18,5.87,2,11.82,2.68,17.78.61,5.71,1.56,11.58.89,17.21-1.43,12-3.29,24-5.91,35.87-3.93,17.7-12.09,33.82-20.76,49.56-6,10.83-12,21.92-19.77,31.38-10.34,12.53-22.19,23.86-33.91,35.17-7.51,7.23-16,13.46-24,20.17a10.47,10.47,0,0,0-2.8,2.83c-5.42,10.63-15.45,16.42-24.81,22.42-15,9.63-30.83,18-48.24,22.64a147.11,147.11,0,0,1-24.14,4.79,25.88,25.88,0,0,1-15.78-3.75c-4.62-2.8-7.37-11.68-4.77-16,4.33-7.15,9.15-14.08,12.71-21.6,2.9-6.13,4.25-13,6.65-20.7-3.52.87-6.42,1.78-9.39,2.26-9,1.45-17.92,3.07-27,4-10.46,1.06-21,2.37-31.48,1.85-13.07-.64-26.25-1.35-38.95-5.61-6.56-2.21-10.3-6.64-11.15-12.68-.71-5,2.45-9.41,6.79-12.47,4.88-3.43,9.72-6.92,14.57-10.38l1.8-.47-1.08-1.21ZM60.07,492.72l1.21.92c-2.22,5.7-4.23,11.5-6.75,17.07C53,514,50.6,516.85,48.83,520c-3.71,6.71-2.27,11.86,5.13,14.32a29.63,29.63,0,0,0,14.66.91,123.34,123.34,0,0,0,58.13-29c5.64-5,11-10.38,16.33-15.68,10.39-10.26,22-19.59,30.75-31.11,15.37-20.27,27-42.8,31.46-68.34a99.61,99.61,0,0,0-4.08-51c-4.27-12-9.19-23.83-14.07-35.62-6.94-16.76-10.39-34-8.48-52.2.77-7.33,1.7-14.66,2-22,.77-17.28-8.78-29.4-21.72-38.69-19.83-14.23-43.16-17.71-66.75-17.24-12.89.27-25.75,3.86-38.55,6.3-14.63,2.79-29,6.69-44.12,6.69-17.52,0-34.49-2.94-51.42-7.11-28.14-6.92-55.66-15.44-81.38-29.08a28.2,28.2,0,0,0-8.38-3c-7.5-1.24-11.49,3.64-8.85,10.84a55.08,55.08,0,0,0,5,9.68c3.25,5.31,6.74,10.47,10.45,16.19a23.07,23.07,0,0,1-3.52.18c-7.48-1-15-1.79-22.41-3.23-15.1-2.94-30.31-5.56-45.13-9.59-16.29-4.4-32.15-10.32-48.29-15.46-4.72-1.51-9.52-3.12-14.4-3.68-5.09-.58-9.72,5.17-7.87,9.87,2.59,6.55,5.49,13.2,9.5,18.94,11.49,16.41,26,30.08,40.84,43.47,2.9,2.62,5.74,5.3,8.61,7.95l-.35,1-7-1.18c-4.56-.78-9.1-2-13.69-2.23-6.34-.33-10.69,4.7-9.37,10.57a25.2,25.2,0,0,0,3.3,8.26,192.16,192.16,0,0,0,45.1,48.65c8.05,6.06,16.56,11.52,25.93,18-10.19,1.66-19.47,3.18-28.75,4.67-4.4.71-8.95.88-13.17,2.16-6.11,1.84-8.42,7.56-5.31,13.1a64.59,64.59,0,0,0,8.49,11.57c11.1,12.28,24.12,22.29,38.07,31.11a163.39,163.39,0,0,0,53.7,21.89c10.22,2.18,20.53,4,31.13,6a78.38,78.38,0,0,1-21.55,11.14,68.23,68.23,0,0,0-10.91,4.67c-3.65,1.93-5.23,5.2-5.22,9.46,0,4.93,3.12,7.95,6.26,10.79,13.66,12.23,30.16,19,47.66,23.81,15.49,4.26,31.2,5.72,47.15,2.91,3.1-.54,6.18-1.24,9.27-1.87l.43,1c-3.27,2.18-6.51,4.41-9.82,6.53s-5.82,5.44-5.47,9.33a9.47,9.47,0,0,0,7.15,8.75c6.38,1.61,12.8,3.77,19.29,4.11,14,.75,28.17.81,42-2.52C51,494,55.59,493.49,60.07,492.72Z" transform="translate(441.38 116.58)"/>
        <path d="M923.8,538.29c4.85,3.47,9.63,7.05,14.58,10.38,4.35,2.93,7.2,7.37,6.87,12-.36,5-2.93,10.18-8.58,11.94-6.27,2-12.6,4.17-19.06,4.9a248.12,248.12,0,0,1-34,2c-11.32-.28-22.7-2.23-34-3.82-6.53-.92-13-2.62-19.44-3.91a11.83,11.83,0,0,0-2.66.1c.15,1.06.2,1.85.38,2.6,3.36,13.88,10.62,25.91,17.88,38,5.55,9.23-1.89,18.85-12,20.21-16.14,2.18-30.91-2.91-45.48-8.73a187.44,187.44,0,0,1-44.15-24.53c-5.63-4.29-12.29-8-15-15.46-.3-.85-1.29-1.5-2-2.13-9.07-7.45-18.48-14.52-27.13-22.41-7.94-7.25-15.09-15.34-22.53-23.12-8-8.37-14.46-17.9-20.6-27.67a302.06,302.06,0,0,1-25.24-50.81c-4.62-11.78-7.12-24.09-8.86-36.49-2.66-19-1.32-37.89,4.94-56,6.15-17.83,13.47-35.26,19.82-53,4.73-13.26,9.74-26.55,12.76-40.25,2.3-10.46,2.46-21.6,2.12-32.39-.32-10.34-2.76-20.6-3.81-30.94a62.34,62.34,0,0,1,.26-14.89A60,60,0,0,1,668,169.24a82,82,0,0,1,22.62-23,118.24,118.24,0,0,1,43.68-18.33c7.3-1.48,14.65-2.74,22-3.66,7.63-1,15.34-2.07,23-1.92,13.84.26,27.55,2.36,41.11,5.24,16.87,3.58,33.79,7,50.64,10.63A158.26,158.26,0,0,0,915.3,141a260.76,260.76,0,0,0,37.09-5.35c18.38-3.94,36.69-8.4,54.75-13.6a447.56,447.56,0,0,0,43.13-14.94c13.83-5.57,27.13-12.47,40.75-18.58a39.78,39.78,0,0,1,10.51-3.18c10.11-1.46,14.48,7.78,11.17,15.09a224.13,224.13,0,0,1-12.24,22.29c-3,5.07-6.67,9.78-10.65,15.53,5-.48,9.18-.71,13.26-1.29,8.18-1.15,16.35-2.45,24.52-3.77,10.55-1.71,21.17-3.13,31.61-5.34,21.54-4.58,42.53-11.11,63.39-18.11,16.12-5.41,32.35-10.46,48.53-15.67a51.65,51.65,0,0,1,5.49-1.77c8.75-1.79,15.76,5.83,14.19,14.53-2.21,12.28-9.48,21.76-16.71,31.12a342.77,342.77,0,0,1-22.76,25.85c-9.34,9.84-19,19.37-28.79,28.79-5,4.85-10.57,9.18-15.88,13.74l.41.92c5.13-.85,10.24-2.08,15.4-2.46,6.36-.47,12.24-4.06,19.06-1.82,8.07,2.65,10.33,9.2,8.39,16.49-2.23,8.36-7,15.28-12.16,21.69-9.6,11.9-19.74,23.4-30.21,34.54-16,17-35.08,30.16-54.88,42.33-2,1.25-4.07,2.47-7,4.24,6.83,1.71,12.86,3.54,19,4.69,8.6,1.61,17.28,2.8,26,4,4,.56,8.2.34,12.17,1.14,9.45,1.89,14,11.09,9.39,19.48a70.18,70.18,0,0,1-9.37,13.48,251,251,0,0,1-49.58,42.45C1130.83,422,1107,433.7,1080.68,440c-15.42,3.72-30.82,7.24-46.62,8.87-2.69.28-5.35.92-8.52,1.48,10,7.12,20.37,12.91,32,16.56a73.88,73.88,0,0,1,15.29,6.73c7.57,4.48,9.2,13.87,4.42,21.07-6.27,9.44-15.5,15.4-24.91,21a174.86,174.86,0,0,1-39.11,17.14c-12.88,3.92-25.84,7.18-39.35,7.88-5.92.31-11.87,1.24-17.74.86-8.76-.57-17.45-2-26.18-3.14-1.76-.23-3.52-.53-5.28-.8l-1.54-1L922,537.94ZM987,185.4c-.18-.34-.36-.68-.55-1,1.26-1.88,2.62-3.71,3.77-5.65,4-6.7,8.41-13.18,11.56-20.23,2.81-6.28-1.18-11.07-8-10.28-3.2.37-6.36,1.73-9.38,3-13,5.54-25.65,11.91-38.89,16.7a393,393,0,0,1-69.16,17.8,124.52,124.52,0,0,1-39.2.69c-15.52-2.36-30.76-6.48-46.22-9.21-9.41-1.66-19-3.06-28.54-2.88s-19.41,1.88-28.91,3.9c-16.61,3.52-31.36,10.83-42.69,23.94-10.49,12.14-12.21,26.4-9.56,41.49,2.25,12.85,2.55,25.58-.27,38.37-3.45,15.6-9.89,30.14-15.92,44.81-4.68,11.38-9.11,22.94-10.14,35.18-1.61,19,.78,37.54,8.51,55.33,10.3,23.73,23.67,45.19,42.77,63,9.17,8.53,19.24,15.94,27.87,25.23,12.07,13,28.24,20.17,44.75,26.18,7.87,2.86,15.94,4.54,24.4,3.86,9-.72,13.08-7.73,9-15.89-1-1.92-2.39-3.62-3.32-5.55-3.27-6.86-6.42-13.78-10-21.54,3.06.31,4.88.32,6.62.69,12.46,2.66,24.92,4.85,37.78,4.67,10.67-.16,21.11-1.07,31.39-4,4.94-1.41,8.07-4.64,8.47-9.34.34-4-2.34-7.35-6-9.59-3.2-2-6.28-4.12-9.41-6.19.15-.32.31-.63.46-1,1.37.24,2.75.41,4.1.74,12.38,3.08,24.82,3,37.38,1.16a136,136,0,0,0,48.64-16.69c6.89-4,13.62-8.34,18.24-15.12,3.63-5.32,2.59-11.78-2.93-15.13A55.33,55.33,0,0,0,962.24,418a79.88,79.88,0,0,1-21.73-11.35c12-2.19,23.62-3.71,34.9-6.46,35.41-8.64,65-27.35,89.75-53.75a47.91,47.91,0,0,0,7.29-10.6c2.63-5,.58-10.09-4.7-12.26a34.7,34.7,0,0,0-7.72-1.63c-11.37-1.78-22.76-3.5-34.14-5.24l.06-1.26c6.37-4.17,12.84-8.18,19.07-12.54,18-12.6,33.08-28.13,46-45.82a66.2,66.2,0,0,0,7.84-14.26c2.48-6.25-1.69-11.78-8.45-11.94a36.39,36.39,0,0,0-6.42.73c-4.94.77-9.87,1.61-15.7,2.57a28.57,28.57,0,0,1,2.17-2.5c15.52-13.33,30.32-27.4,43.19-43.33,6-7.46,12.22-15,14.1-24.83a10.67,10.67,0,0,0-1.2-6.83c-2.36-4-6-4.77-12-2.86-13,4.13-25.8,8.7-38.83,12.58-14.29,4.26-28.63,8.46-43.16,11.72-12,2.71-24.39,4-36.61,5.93l-9,1.37Z" transform="translate(441.38 116.58)"/>
        <path class="cls-2" d="M60.07,492.72c-4.5.77-9.06,1.29-13.48,2.35-13.88,3.33-28,3.27-42,2.52-6.49-.34-12.91-2.5-19.29-4.11a9.47,9.47,0,0,1-7.15-8.75c-.35-3.89,2-7.13,5.47-9.33s6.55-4.35,9.82-6.53l-.43-1c-3.09.63-6.17,1.33-9.27,1.87-16,2.81-31.66,1.35-47.15-2.91-17.45-4.79-33.95-11.58-47.6-23.9-3.14-2.84-6.26-5.86-6.26-10.79,0-4.26,1.57-7.53,5.22-9.46A68.23,68.23,0,0,1-101.14,418a78.38,78.38,0,0,0,21.55-11.14c-10.6-2-20.91-3.78-31.13-6A163.39,163.39,0,0,1-164.42,379c-14-8.82-27-18.83-38.07-31.11A64.59,64.59,0,0,1-211,336.3c-3.11-5.54-.8-11.26,5.31-13.1,4.22-1.28,8.77-1.45,13.17-2.16,9.28-1.49,18.56-3,28.75-4.67-9.37-6.47-17.88-11.93-25.93-18a192.16,192.16,0,0,1-45.1-48.65,25.2,25.2,0,0,1-3.3-8.26c-1.32-5.87,3-10.9,9.37-10.57,4.59.24,9.13,1.45,13.69,2.23l7,1.18.35-1c-2.87-2.65-5.71-5.33-8.61-8-14.8-13.39-29.35-27.06-40.84-43.47-4-5.74-6.91-12.39-9.5-18.94-1.85-4.7,2.78-10.45,7.87-9.87,4.88.56,9.68,2.17,14.4,3.68,16.12,5.14,32,11.06,48.33,15.49,14.82,4,30,6.65,45.13,9.59,7.4,1.44,14.93,2.21,22.41,3.23a23.07,23.07,0,0,0,3.52-.18c-3.71-5.72-7.2-10.88-10.45-16.19a55.08,55.08,0,0,1-5-9.68c-2.64-7.2,1.35-12.08,8.85-10.84a28.2,28.2,0,0,1,8.38,3c25.72,13.64,53.24,22.16,81.38,29.08,16.93,4.17,33.9,7.11,51.42,7.11,15.11,0,29.49-3.9,44.12-6.69,12.8-2.44,25.66-6,38.55-6.3,23.59-.47,46.92,3,66.75,17.24C172,200.9,181.53,213,180.76,230.3c-.32,7.35-1.25,14.68-2,22-1.91,18.18,1.54,35.44,8.48,52.2,4.88,11.79,9.8,23.6,14.07,35.62a99.61,99.61,0,0,1,4.08,51c-4.42,25.54-16.09,48.07-31.46,68.34-8.73,11.52-20.36,20.85-30.75,31.11-5.37,5.3-10.69,10.67-16.33,15.68a123.34,123.34,0,0,1-58.13,29,29.63,29.63,0,0,1-14.66-.91c-7.4-2.46-8.84-7.61-5.13-14.32,1.77-3.19,4.21-6,5.7-9.33,2.52-5.57,4.53-11.37,6.75-17.07ZM-18.77,260c.91-3.87-.62-4.9-3.76-5.12-7.46-.53-14.91-1.15-22.33-2.06a402.16,402.16,0,0,1-74.33-16.58c-30.08-9.68-59-21.67-84.51-40.87-.39-.3-.82-.81-1.22-.8-1.22,0-2.89-.14-3.52.55a3.44,3.44,0,0,0,.16,3.4A22.1,22.1,0,0,0-203,203c10.38,6.3,20.52,13.09,31.34,18.51,28.08,14.09,57.83,23.75,88.49,30.33,16,3.44,32.3,5.66,48.52,8C-29.47,260.64-24.07,260-18.77,260Zm-21.7,45.49c11.43-.52,22.87-1,34.3-1.6,2.58-.13,6.34.15,6.21-3.34-.15-3.89-4-2.58-6.43-2.48-10.63.45-21.28,1.92-31.87,1.55-17.41-.6-34.87-1.67-52.16-3.74a254.56,254.56,0,0,1-73.36-19.94c-5.62-2.49-10.91-5.69-16.49-8.26-1.16-.54-2.93.24-4.42.42.48,1.41.69,3,1.53,4.18a8.34,8.34,0,0,0,3.28,2.2c6.76,3.22,13.39,6.76,20.34,9.49C-121.29,299-81.49,305.4-40.47,305.49Zm-35.64,64.24c29.44-.55,58.42-4.47,87.34-9.06,2.07-.33,5.44-.36,4.89-3.67s-3.7-2.27-5.83-2c-12.13,1.59-24.19,3.85-36.36,4.94-16.71,1.51-33.49,2.94-50.25,3-14.91,0-29.86-1.59-44.73-3.09-6.89-.69-13.62-2.93-20.46-4.23-1.35-.26-2.91.57-4.38.9.79,1.43,1.48,2.92,2.4,4.26.32.45,1.18.59,1.82.75,5.95,1.47,11.84,3.6,17.89,4.24C-107.93,367.43-92,368.49-76.11,369.73Zm18.24,75.35c4.34-.69,7.65-1.11,10.9-1.76,29-5.75,57.1-14.41,84.67-24.88,7.93-3,15.71-6.46,23.43-10,1.1-.5,1.51-2.49,2.24-3.79-1.45-.37-3-1.28-4.32-1a46,46,0,0,0-7.46,2.84c-35.13,14.59-71,26.63-108.76,32.52-1.49.24-2.7,2.24-4,3.42ZM17.93,211c7.17,0,14.33.12,21.49,0a88.55,88.55,0,0,0,13.4-1.14c1.7-.3,3.12-2.2,4.67-3.37a26.39,26.39,0,0,0-4.83-2.3c-1.19-.31-2.61.25-3.93.4-4.27.48-8.53,1.33-12.81,1.37-20,.2-40,.47-59.73-2.94-13.15-2.27-26.08-5.35-37.77-12.21-1.67-1-3.58-2.7-5.17-.23s.31,4.17,2.25,5.21a98.9,98.9,0,0,0,11.25,5.34c23,8.68,46.91,10.56,71.18,9.87ZM97.27,426c-1.93-.72-3.26-1.65-4.49-1.53s-2.3,1.23-3.29,2.08A306.22,306.22,0,0,1,11.4,476.06c-2.1.92-4.92,1.78-3.58,4.87,1.25,2.88,3.67,1.15,5.65.62a5.64,5.64,0,0,0,.92-.39A318.62,318.62,0,0,0,94,430.32c1.07-.93,1.77-2.28,3.28-4.29Zm28.59,22.47c-5.1-1.86-6.09,1.8-7.54,4.35a296.24,296.24,0,0,1-41.53,55.41c-1.68,1.79-6,3.58-2.82,6.64,2.88,2.82,5-.91,6.82-2.77a282.4,282.4,0,0,0,43.56-58.2C125.25,452.32,125.37,450.3,125.86,448.49Z" transform="translate(441.38 116.58)"/>
        <path class="cls-2" d="M987,185.4c3-.45,6-.9,9-1.37,12.22-1.92,24.57-3.22,36.61-5.93,14.53-3.26,28.87-7.46,43.16-11.72,13-3.88,25.86-8.45,38.83-12.58,6-1.91,9.6-1.17,12,2.86a10.67,10.67,0,0,1,1.2,6.83c-1.88,9.79-8.07,17.37-14.1,24.83-12.87,15.93-27.67,30-43.19,43.33a28.57,28.57,0,0,0-2.17,2.5c5.83-1,10.76-1.8,15.7-2.57a37.35,37.35,0,0,1,6.42-.73c6.76.16,10.93,5.69,8.45,11.94a66.2,66.2,0,0,1-7.84,14.26,195.8,195.8,0,0,1-46,45.82c-6.23,4.36-12.7,8.37-19.07,12.54l-.06,1.26c11.38,1.74,22.77,3.46,34.14,5.24a35.27,35.27,0,0,1,7.72,1.63c5.28,2.17,7.33,7.25,4.7,12.26a47.91,47.91,0,0,1-7.29,10.6c-24.79,26.4-54.34,45.11-89.75,53.75-11.28,2.75-22.86,4.27-34.9,6.46A79.88,79.88,0,0,0,962.26,418a55.33,55.33,0,0,1,11.35,4.89c5.52,3.35,6.56,9.81,2.93,15.13-4.62,6.78-11.35,11.17-18.24,15.12a136,136,0,0,1-48.64,16.69c-12.56,1.83-25,1.92-37.38-1.16-1.35-.33-2.73-.5-4.1-.74-.15.32-.31.63-.46,1,3.13,2.07,6.21,4.23,9.41,6.19,3.64,2.24,6.32,5.55,6,9.59-.4,4.7-3.53,7.93-8.47,9.34-10.28,2.94-20.72,3.85-31.39,4-12.86.18-25.32-2-37.78-4.67-1.74-.37-3.56-.38-6.62-.69,3.59,7.76,6.74,14.68,10,21.54.93,1.93,2.36,3.63,3.32,5.55,4.1,8.16,0,15.17-9,15.89-8.46.68-16.53-1-24.4-3.86-16.51-6-32.68-13.19-44.75-26.18-8.63-9.29-18.7-16.7-27.87-25.23-19.1-17.77-32.47-39.23-42.77-63-7.73-17.79-10.12-36.33-8.51-55.33,1-12.24,5.46-23.8,10.14-35.18C671,312.18,677.5,297.64,681,282c2.82-12.79,2.52-25.52.27-38.37-2.65-15.09-.93-29.35,9.56-41.49,11.33-13.11,26.08-20.42,42.69-23.94,9.5-2,19.25-3.72,28.91-3.9,9.5-.18,19.13,1.22,28.54,2.88,15.46,2.73,30.7,6.85,46.22,9.21a124.22,124.22,0,0,0,39.2-.69,393,393,0,0,0,69.16-17.8c13.24-4.79,25.91-11.16,38.89-16.7,3-1.29,6.18-2.65,9.38-3,6.8-.79,10.79,4,8,10.28-3.15,7-7.61,13.53-11.56,20.23-1.15,1.94-2.51,3.77-3.77,5.65C986.59,184.72,986.79,185.06,987,185.4ZM878.32,256c.9,4.51,3.09,5.39,6.08,5,1.29-.18,2.55-.67,3.84-.84,15.59-2.05,31.33-3.3,46.74-6.25,34.44-6.6,67.76-17,99.08-32.94,11.81-6,22.75-13.72,33.92-20.91,1.19-.76,2.25-3.8,1.68-4.79-1.33-2.26-3.38-.9-5.07.38-21.75,16.43-46.23,27.55-71.78,36.49-33.23,11.63-67.24,19.75-102.5,22.1C886.42,254.49,882.59,255.32,878.32,256Zm22.83,49.52a337.47,337.47,0,0,0,67.92-6.57c24.26-4.74,47.78-11.78,69.79-23.27a32.2,32.2,0,0,0,6.23-4.09,3.53,3.53,0,0,0,.62-3.38c-.51-.77-2.26-1.08-3.4-1s-2,1.08-3.06,1.59c-6,3-11.79,6.25-17.94,8.73-47,19-96,24.4-146.3,21.23-3.65-.23-7.29-.7-10.93-.7-1,0-2,1.28-3.07,2,.81,1.09,1.42,2.44,2.47,3.18a6.75,6.75,0,0,0,3.37.64Q884,304.71,901.15,305.49ZM939.38,369a257.07,257.07,0,0,0,53.86-5.13,76.64,76.64,0,0,0,11.5-3.21c1.14-.42,1.68-2.45,2.49-3.74-1.39-.51-3-1.74-4.13-1.4a157.11,157.11,0,0,1-40.26,6.59c-17.44.53-34.92.46-52.36.1-9.29-.19-18.56-1.41-27.81-2.39-6.55-.69-13.06-1.73-19.57-2.67-4.93-.71-9.83-1.67-14.77-2.16-1.06-.11-2.28,1.35-3.42,2.09a25.84,25.84,0,0,0,2.73,3,5.17,5.17,0,0,0,2.37.69C878.77,365.24,907.59,369.12,939.38,369ZM799.24,402.49c-3.23,4.6-.21,5.67,2.38,6.82A529.84,529.84,0,0,0,904.9,442.7a103.19,103.19,0,0,0,13.79,2c1.17.09,2.47-1.55,3.71-2.4-1.07-1.09-2-2.64-3.25-3.16-1.63-.65-3.62-.31-5.41-.64a489,489,0,0,1-83.84-23.82C819.69,410.77,809.59,406.6,799.24,402.49ZM842.93,211.7c20.05-.08,40-1,59.33-6.74,8.08-2.39,15.81-6,23.58-9.34,2-.85,3.81-2.93,1.89-5.15-.66-.75-3.26-.35-4.7.21-6.8,2.65-13.31,6.19-20.27,8.23-22.59,6.66-45.86,7.5-69.22,7-5.11-.11-10.22-.54-15.32-.89-3.81-.26-7.62-.78-11.43-.83-1,0-2.92,1.44-2.84,2a6.14,6.14,0,0,0,2.2,3.35c.64.54,1.89.46,2.88.51l33.9,1.65Zm-75.48,212c-1,.87-2.42,1.73-2.3,2.05.63,1.74,1.24,3.78,2.55,4.94a293.83,293.83,0,0,0,53.77,37.8c8.88,4.87,18.13,9.09,27.34,13.33,1.17.54,3.1-.56,4.67-.91-.81-1.41-1.29-3.33-2.5-4.12-2.34-1.52-5.12-2.35-7.68-3.55a311.24,311.24,0,0,1-70.94-46,51.28,51.28,0,0,0-4.91-3.57Zm21.94,90.1c-2-2.27-3-3.55-4.11-4.73a284.64,284.64,0,0,1-42.53-56.49c-.66-1.16-1.17-2.72-2.19-3.27-1.4-.74-3.22-.69-4.86-1,.06,1.4-.25,3,.25,4.17a48,48,0,0,0,3.29,5.58,282.4,282.4,0,0,0,41.35,54.28c1.14,1.18,2.39,2.66,3.83,3,1.17.33,2.76-.79,5-1.57Z" transform="translate(441.38 116.58)"/>
        <path class="cls-3" d="M-18.77,260c-5.3,0-10.7.64-15.9-.12-16.22-2.34-32.51-4.56-48.52-8-30.66-6.58-60.41-16.24-88.49-30.33-10.82-5.42-21-12.21-31.34-18.51a22.1,22.1,0,0,1-5.26-4.52,3.44,3.44,0,0,1-.16-3.4c.63-.69,2.3-.52,3.52-.55.4,0,.83.5,1.22.8,25.47,19.2,54.43,31.19,84.51,40.87a402.16,402.16,0,0,0,74.33,16.58c7.42.91,14.87,1.53,22.33,2.06C-19.41,255.1-17.86,256.13-18.77,260Z" transform="translate(441.38 116.58)"/>
        <path class="cls-4" d="M-40.47,305.49c-41-.07-80.82-6.51-119.07-21.52-7-2.73-13.58-6.27-20.34-9.49a8.34,8.34,0,0,1-3.28-2.2c-.84-1.16-1.05-2.77-1.53-4.18,1.49-.18,3.26-1,4.42-.42,5.58,2.57,10.87,5.77,16.49,8.26a254.36,254.36,0,0,0,73.37,19.92c17.29,2.07,34.75,3.14,52.16,3.74,10.59.37,21.24-1.1,31.87-1.55C-4,298-.1,296.64.05,300.53c.13,3.49-3.63,3.21-6.21,3.34C-17.6,304.49-29,305-40.47,305.49Z" transform="translate(441.38 116.58)"/>
        <path class="cls-5" d="M-76.11,369.73c-15.89-1.28-31.82-2.3-47.67-4-6.05-.64-11.94-2.77-17.89-4.24-.64-.16-1.5-.3-1.82-.75-.92-1.34-1.61-2.83-2.4-4.26,1.47-.33,3-1.16,4.38-.9,6.84,1.3,13.57,3.54,20.46,4.23,14.87,1.5,29.82,3.12,44.73,3.09,16.76,0,33.54-1.47,50.25-3,12.17-1.09,24.23-3.35,36.36-4.94,2.13-.28,5.29-1.23,5.83,2s-2.82,3.34-4.89,3.67C-17.69,365.26-46.67,369.18-76.11,369.73Z" transform="translate(441.38 116.58)"/>
        <path class="cls-6" d="M-57.87,445.08l-3.33-2.65c1.34-1.18,2.55-3.18,4-3.42,37.79-5.89,73.67-17.93,108.79-32.52a47.06,47.06,0,0,1,7.45-2.8c1.3-.29,2.87.62,4.32,1-.73,1.3-1.14,3.29-2.24,3.79-7.72,3.51-15.5,7-23.43,10C10.12,429-18,437.61-47,443.36-50.22,444-53.53,444.39-57.87,445.08Z" transform="translate(441.38 116.58)"/>
        <path class="cls-4" d="M17.93,211c-24.27.69-48.23-1.19-71.18-9.92a98.9,98.9,0,0,1-11.25-5.34c-1.94-1-3.84-2.73-2.25-5.21s3.5-.75,5.17.23C-49.89,197.64-37,200.72-23.81,203-4,206.4,16,206.13,35.92,205.93c4.28,0,8.54-.89,12.81-1.37,1.32-.15,2.74-.71,3.93-.4a26.39,26.39,0,0,1,4.83,2.3c-1.55,1.17-3,3.07-4.67,3.37A88.55,88.55,0,0,1,39.42,211C32.26,211.14,25.1,211,17.93,211Z" transform="translate(441.38 116.58)"/>
        <path class="cls-7" d="M97.27,426c-1.51,2-2.21,3.36-3.28,4.3a318.62,318.62,0,0,1-79.6,50.84,5.64,5.64,0,0,1-.92.39c-2,.53-4.4,2.26-5.65-.62-1.34-3.09,1.48-4,3.58-4.87a306.22,306.22,0,0,0,78.09-49.49c1-.85,2.13-2,3.29-2.08S95.34,425.31,97.27,426Z" transform="translate(441.38 116.58)"/>
        <path class="cls-7" d="M125.86,448.49c-.49,1.83-.61,3.85-1.51,5.43a282.4,282.4,0,0,1-43.56,58.2C79,514,76.85,517.71,74,514.89c-3.14-3.06,1.14-4.85,2.82-6.64a296.24,296.24,0,0,0,41.53-55.41C119.77,450.27,120.76,446.61,125.86,448.49Z" transform="translate(441.38 116.58)"/>
        <path class="cls-3" d="M878.32,256c4.26-.65,8.1-1.53,12-1.79,35.26-2.35,69.27-10.47,102.5-22.1,25.55-8.94,50-20.06,71.78-36.49,1.69-1.28,3.74-2.64,5.07-.38.57,1-.49,4-1.68,4.79-11.17,7.19-22.11,14.92-33.92,20.91-31.32,15.89-64.64,26.34-99.08,32.94-15.41,3-31.15,4.2-46.74,6.25-1.29.17-2.55.66-3.84.84C881.41,261.36,879.22,260.49,878.32,256Z" transform="translate(441.38 116.58)"/>
        <path class="cls-4" d="M901.15,305.49l-34.3-1.63a6.75,6.75,0,0,1-3.37-.64c-1.05-.74-1.66-2.09-2.47-3.18,1-.69,2-2,3.07-2,3.64,0,7.28.47,10.93.7,50.26,3.17,99.28-2.25,146.3-21.23,6.15-2.48,12-5.78,17.94-8.73,1-.51,2-1.49,3.06-1.59s2.89.19,3.4,1a3.53,3.53,0,0,1-.62,3.38,32.2,32.2,0,0,1-6.23,4.09c-22,11.49-45.53,18.53-69.79,23.27A336.74,336.74,0,0,1,901.15,305.49Z" transform="translate(441.38 116.58)"/>
        <path class="cls-5" d="M939.38,369c-31.79.15-60.61-3.73-89.37-8.24a5.17,5.17,0,0,1-2.37-.69,25.84,25.84,0,0,1-2.73-3c1.14-.74,2.36-2.2,3.42-2.09,4.94.49,9.84,1.45,14.77,2.16,6.51.94,13,2,19.57,2.67,9.25,1,18.52,2.2,27.81,2.39,17.44.36,34.92.43,52.36-.1a157.11,157.11,0,0,0,40.26-6.59c1.13-.34,2.74.89,4.13,1.4-.81,1.29-1.35,3.32-2.49,3.74a76.64,76.64,0,0,1-11.5,3.21A257.08,257.08,0,0,1,939.38,369Z" transform="translate(441.38 116.58)"/>
        <path class="cls-6" d="M799.24,402.49c10.35,4.11,20.45,8.28,30.66,12.15a489.14,489.14,0,0,0,83.84,23.85c1.79.33,3.78,0,5.41.64,1.29.52,2.18,2.07,3.25,3.16-1.24.85-2.54,2.49-3.71,2.4a103.19,103.19,0,0,1-13.79-2,530.09,530.09,0,0,1-103.31-33.38C799,408.16,796,407.09,799.24,402.49Z" transform="translate(441.38 116.58)"/>
        <path class="cls-4" d="M842.93,211.7,809,210c-1-.05-2.24,0-2.88-.51a6.14,6.14,0,0,1-2.2-3.35c-.08-.53,1.84-2,2.84-2,3.81.05,7.62.57,11.43.83,5.1.35,10.21.78,15.32.89,23.36.52,46.63-.32,69.22-7,7-2,13.47-5.58,20.27-8.23,1.44-.56,4-1,4.7-.21,1.92,2.22.12,4.3-1.89,5.15-7.77,3.32-15.5,7-23.58,9.34C882.94,210.7,863,211.62,842.93,211.7Z" transform="translate(441.38 116.58)"/>
        <path class="cls-7" d="M767.45,423.67c1.74,1.23,3.44,2.24,4.91,3.51a311.24,311.24,0,0,0,70.94,46c2.56,1.2,5.34,2,7.68,3.55,1.21.79,1.69,2.71,2.5,4.12-1.57.35-3.5,1.45-4.67.91-9.21-4.24-18.46-8.46-27.34-13.33a293.83,293.83,0,0,1-53.77-37.8c-1.31-1.16-1.92-3.2-2.55-4.94C765,425.4,766.44,424.54,767.45,423.67Z" transform="translate(441.38 116.58)"/>
        <path class="cls-7" d="M789.39,513.77c-2.21.78-3.78,1.9-5,1.6-1.44-.37-2.69-1.85-3.83-3a282,282,0,0,1-41.34-54.29,48,48,0,0,1-3.29-5.58c-.5-1.21-.19-2.77-.25-4.17,1.64.29,3.46.24,4.86,1,1,.55,1.53,2.11,2.19,3.27a284.64,284.64,0,0,0,42.53,56.49C786.41,510.22,787.42,511.49,789.39,513.77Z" transform="translate(441.38 116.58)"/>
      </g>
      <path class="cls-1" d="M413.83,751.77c-4.22,0-7.76-.11-11.14-.37-12.78-.95-25.15-2.39-36.74-4.28a367.31,367.31,0,0,1-130.68-48.9A323.69,323.69,0,0,1,187,663c-11-9.83-21.27-20.44-31.22-30.7q-3.56-3.68-7.12-7.33C135.18,611.17,122.89,595.17,111,576c-5.56-9-10.63-18-16-27.48q-2.18-3.85-4.4-7.78l-8.46,0c-3.34,0-6.69,0-10,0-7.07,0-12.52-.06-17.69-.17h-.19a29.45,29.45,0,0,1-13.38-3.85c-7.76-4.41-15.59-9-23.16-13.46C11.93,519.91,5.94,516.38,0,513c-8.09-4.67-9.39-12.55-9.82-15.14,0-.29-.08-.57-.1-.86a32.24,32.24,0,0,1,0-4.61V314c0-14.13,6.8-21,20.78-21H60.11l.78-3.38c1.72-7.46,3.51-15.17,5.48-22.7a350.94,350.94,0,0,1,21-58.14c10-21.51,20.48-39.64,32-55.43,7.84-10.77,16.76-21.92,28.05-35.08,8.5-9.88,17.69-19,24.74-25.86a358.27,358.27,0,0,1,64.69-49.77A352.52,352.52,0,0,1,312.05,8.16l.46-.14a77.3,77.3,0,0,1,7.77-1.66,9.68,9.68,0,0,1,1.6-.13,10,10,0,0,1,9.29,6.32c5.46,13.82,11.56,24.43,19.18,33.37a10,10,0,0,1,2.38,6.87,18.23,18.23,0,0,1,8.95,4.86,101.3,101.3,0,0,0,51.79,25.78c3.85.69,7.77,1.14,11.91,1.62l5.93.72a10.16,10.16,0,0,1,3.21,1,9.92,9.92,0,0,1,4.39-1.36l1.3-.09,2.25-.15c25.18-1.25,47.18-10.22,65.42-26.65a21.34,21.34,0,0,1,10-5.37,10,10,0,0,1,2.34-7c7.78-9.22,13.9-19.86,19.25-33.49a10,10,0,0,1,9.31-6.35,9.83,9.83,0,0,1,3.14.51c2.71.89,5.51,1.77,8.22,2.62,6.12,1.92,12.45,3.91,18.67,6.37a336.37,336.37,0,0,1,73.7,39.89c11,7.93,22.47,17.12,35.19,28.13,9.05,7.84,18.1,16.52,27.69,26.54a364.75,364.75,0,0,1,48.21,63.24,348.48,348.48,0,0,1,36,80.59c3.07,10.31,5.6,20.46,8.28,31.2.63,2.53,1.27,5.1,1.92,7.69h38c12.77,0,19.81,7.1,19.81,20V493.8c0,9.24-4,16-12.34,20.56-10.54,5.76-21.59,12.26-35.85,21.08a32.64,32.64,0,0,1-18.13,5.47h-.53c-3.38-.09-7-.13-11.53-.13-2.77,0-5.53,0-8.29,0h-2.32c-1.63,3-3.17,5.8-4.58,8.64-7.55,15.23-17,30.43-29.79,47.83l-.07.1A346.87,346.87,0,0,1,721.9,624c-10,11.12-18.45,19.83-26.42,27.42a365.71,365.71,0,0,1-63.29,48.09,360.2,360.2,0,0,1-80.5,36.12,380.1,380.1,0,0,1-51.5,12,327.75,327.75,0,0,1-51.3,4c-2.94,0-5.92,0-8.86-.12a16.6,16.6,0,0,1-5.15-.95,15.15,15.15,0,0,1-4.91.9l-6.09.12C420.6,751.7,417.22,751.77,413.83,751.77Zm64.65-162.23a35.16,35.16,0,0,1,5.13.35,11.3,11.3,0,0,0,1.56.12,4,4,0,0,0,3.44-1.49V566.19l-1.43-1.38H476.09l-1.25,1.25c0,.77,0,1.54.05,2.3a147.1,147.1,0,0,1-.26,15.65c-.26,3,.15,4.51,1.22,5.59C476.67,589.57,477.55,589.54,478.48,589.54Zm59.08-1.25c1.4,1.51,1.93,1.71,2.11,1.71a2.83,2.83,0,0,0,.47,0,27.64,27.64,0,0,1,5-.41c1,0,2,0,3,.08.74,0,1.47.07,2.21.07h.07c2.3-2.56.36-6.41-.1-7.23a10,10,0,0,1,.58-10.7c.89-1.25.61-5.38-.76-6.9l-.2-.24-.21,0c-1.4.11-2.87.16-4.64.16l-2.88,0-2.56,0h-.93c-2.28,2.32-1.34,5.3,0,7.52a10,10,0,0,1-.48,11A14.91,14.91,0,0,0,537.56,588.29Zm-3.41-112.46c8.9,0,19.42,0,30.27-.1,5.47-5.17,10.85-10.55,16-16,.14-28.07.14-56.51,0-84.58-4.74-5-9.89-10.15-16.07-16.11-11.62-.07-23.06-.08-32.79-.08H512.94l-.25.25c-5.58,5.42-10.85,10.56-16,15.8-.12,28.18-.12,56.73,0,84.93,4.46,4.61,9.08,9.23,13.55,13.71l2.18,2.18Zm-497-.14,88.64,0,4.52-4.51c5.24-5.24,10.65-10.65,15.88-16.05.1-34.92.1-70.31,0-105.25-6-6-12.08-12.07-18-17.91l-2.7-2.66H37.15v18a10,10,0,0,1,9.41,10v90.67a10,10,0,0,1-9.46,10Zm173.74-.11V462.51a9.84,9.84,0,0,1-2.71-3,10,10,0,0,1-.78-8.51c.75-2.07,1.4-3.8,2.07-5.53a10,10,0,0,1,9.32-6.37h36.58a10,10,0,0,1,9.55,7.05l1.66,5.37a10,10,0,0,1-3.34,10.79v13.23h31.7V464.67a10,10,0,0,1-7.13-6.05l-30.13-75.1a10,10,0,0,1,6-13.18V359.25H211.31v11.9a10,10,0,0,1,4.86,12.7l-30,74.68a10,10,0,0,1-7,6v11Zm480.6-.05V457H680.71a10,10,0,0,1-9.7,7.56H646.43a10,10,0,0,1-10-10V380.08a10,10,0,0,1,7.79-9.75V359.25H611v11.22a10,10,0,0,1,7.42,9.66v74.56a10,10,0,0,1-7.6,9.71v11.13Zm-289.14,0v-11a10,10,0,0,1-7.84-9.77V432.14a10,10,0,0,1,10-10h26.47a10,10,0,0,1,10,10V455a10,10,0,0,1-7.66,9.72V475.5h33.34v-11a10,10,0,0,1-7.48-9.68V379.73a10,10,0,0,1,7.51-9.69V359.27h-33.3v11.1a10,10,0,0,1,7.78,9.75v18.39a10,10,0,0,1-10,10H404.43a10,10,0,0,1-10-10V380.14a10,10,0,0,1,7.82-9.76V359.14H368.9v11a10,10,0,0,1,7.68,9.73V455a10,10,0,0,1-7.7,9.73v10.81Zm419.2-.06V452.08H803a10,10,0,0,1-8.89,5.41h-29a10,10,0,0,1-10-10V422.08a10,10,0,0,1,10-10h6.61a10,10,0,0,1,8.95,5.54h18.2V387.29H781.08a10,10,0,0,1-9.32,6.36h-6.59a10,10,0,0,1-10-10V357.29a10,10,0,0,1,10-10H794.4a10,10,0,0,1,8.89,5.41h18.17V329.27H719.78V347.1a10,10,0,0,1,9.4,10V448a10,10,0,0,1-9.45,10v17.53ZM298.8,306c2.17,0,4.27.14,6.31.27,1.8.11,3.51.23,5.05.23h0a11.86,11.86,0,0,0,4.1-.52c1.37-.56,3.64-3.18,5.47-5.3a70.58,70.58,0,0,1,5.15-5.53c-.12-10.73-.11-21.61-.1-32.13q0-7.17,0-14.35c0-2.31.17-4.53.33-6.67.24-3.13.54-7-.15-8.6-.87-2-3.72-4.55-6.48-7-1.51-1.33-3.06-2.71-4.57-4.22-8.18-.07-16.1-.08-22.83-.08H276.68l-1.14,1.12c-3.36,3.31-6.55,6.45-9.66,9.66-.1,20.73-.1,41.72,0,62.44,2.71,2.88,5.54,5.71,8.52,8.69l2,2Zm-91.44-.27c4.68,0,8.59.16,12.32.5.74.07,1.47.11,2.15.11,4.14,0,7.68-1.06,12.54-6.31,4.39-4.74,5-7.16,4.65-10.48a55.09,55.09,0,0,1,0-9.37c.16-2.57.36-5.77-.15-7-.75-1.78-3.39-4.14-5.94-6.42-1.66-1.5-3.38-3-5-4.77-3.23.06-6.61.09-10.33.09-4.82,0-9.49-.05-13.42-.1-9.52,0-15.8-6.22-16-15.78v-4.72c0-.11,0-.22,0-.33a15.07,15.07,0,0,1,14.69-15c1.56-.08,3.22-.11,5.08-.11s3.67,0,5.51.07l1.52,0c8,0,13.81,5.08,15,12.74h9.31a13.62,13.62,0,0,0-.18-4.42c-.55-1.63-3.74-4.82-8.15-9.24-.16-.15-.3-.31-.44-.47a29.1,29.1,0,0,0-2.54-2.55c-8.16-.07-16.09-.08-22.83-.08H190.48l-1.16,1.14c-3.31,3.28-6.44,6.38-9.4,9.62a.14.14,0,0,0,0,.06c-.23,7-.24,14.32,0,22.48,3.11,3.34,6.44,6.68,9.67,9.92l.77.78H205c3.13,0,6.26,0,9.38,0,9.31,0,15.38,5.86,15.78,15.3.08,1.95.08,3.92,0,5.85-.39,8.72-6.49,14.65-15.2,14.78q-3.21,0-6.4.05c-1.66,0-3.33,0-5-.05-7.73-.19-13.4-4.86-15-12h-8.65v5l1.67,1.71c3.09,3.15,6,6.14,8.92,9.29l6.61-.15C200.46,305.79,203.91,305.7,207.36,305.7Zm162.31.2c5.65.07,11.44.11,17.67.11s12.73,0,20-.11c3.71-3.42,7.36-6.95,10.92-10.39V236.24a10,10,0,0,1,5.6-9v-4.84H403.37v4.65a10,10,0,0,1,6.17,9.24q0,6.67,0,13.28c0,12.3,0,25-.07,37.47,0,8.22-6.16,14.53-14.64,14.91h-.12c-1.73,0-3.5.08-5.43.08s-3.88,0-6.14-.08c-9.7-.21-15.6-6.18-15.76-16-.05-5.46,0-10.92,0-16.19,0-2.66,0-5.31,0-8v-25.6a10,10,0,0,1,6.05-9.19V222.2H353v4.91a10,10,0,0,1,5.83,9.09s0,14.25,0,18.74c0,13.23,0,26.9-.07,40.38,2,1.84,3.88,3.72,5.69,5.54S368,304.34,369.67,305.9Zm138.58-.15v-9.62h-4.2a10,10,0,0,1-9,5.58H476.71a10,10,0,0,1-10-10V236a10,10,0,0,1,5.76-9.06v-4.61H451.94v4.78a10,10,0,0,1,5.65,9V292a10,10,0,0,1-5.66,9v4.75Zm174.28,0v-4.79a10,10,0,0,1-5.65-9V236.08a10,10,0,0,1,5.69-9v-4.64H662v4.91a10,10,0,0,1,5.55,9v23.23a10,10,0,0,1-7.34,9.64,10.14,10.14,0,0,1-2.66.36,10,10,0,0,1-8.59-4.87L623.77,222.4H605.83v4.95a10,10,0,0,1,5.59,9v55.51a10,10,0,0,1-5.43,8.9v4.89h20.31v-4.9a10,10,0,0,1-5.59-9V271a10,10,0,0,1,7.46-9.67l.76-.2a10.12,10.12,0,0,1,2.54-.33,10,10,0,0,1,8.58,4.85c8.11,13.52,16.15,27,23.94,40ZM569.64,231.27a10,10,0,0,1,4.94-4.43v-4.43h-4.94Z" transform="translate(441.38 116.58)"/>
      <path class="cls-1" d="M725.88,242.11a10,10,0,0,1-8.81-5.27l-.82-1.52c-.63-1.15-1.25-2.29-1.84-3.44-40.64-78.62-105-132.07-191.33-158.83a9.71,9.71,0,0,0-1.1-.28,8.57,8.57,0,0,0-.69.56,121.75,121.75,0,0,1-71.68,31.34v63.21c0,.26,0,.52,0,.79a18,18,0,0,1-1.81,9.39c-1.73,3.16-6.41,8.5-13,8.5-5.87,0-10.77-4.37-13-8.64a17.76,17.76,0,0,1-1.74-9.2c0-.28,0-.56,0-.84V104.54c-3.3-.39-6.67-.83-10-1.44A121.17,121.17,0,0,1,348.6,72.76C261.82,99.34,197.08,152.9,156.2,231.94l-.61,1.18c-.45.86-.89,1.72-1.36,2.57a8.94,8.94,0,0,1-.51.84,19,19,0,0,1-1.84,2.27,10,10,0,0,1-7.23,3.09H133.46a10,10,0,0,1-9.28-13.74C144.31,178.21,209,86,326.25,47.05a152.43,152.43,0,0,1-13.71-27.12,10,10,0,0,1,5.91-13.1l10.81-3.89a10.16,10.16,0,0,1,3.39-.59A10,10,0,0,1,342.07,9a101.87,101.87,0,0,0,16.28,29.36,353.11,353.11,0,0,1,61.69-8v-.48q.13-8.94.28-17.88L420.5.43a10,10,0,0,1,10-9.85h8.65a10,10,0,0,1,10,10v29.7a351.28,351.28,0,0,1,63.14,8,101.83,101.83,0,0,0,16.3-29.35,10,10,0,0,1,12.81-6l10.77,3.9a10,10,0,0,1,5.9,13.05,148.09,148.09,0,0,1-13.81,27.3,339.16,339.16,0,0,1,114.53,64.69c38.44,33.09,67.34,71,88.36,116a10,10,0,0,1-9.06,14.23ZM449.82,73.84A104.5,104.5,0,0,0,480.7,63.76q-15.36-2.31-30.88-3.09ZM390.08,63.77a102.4,102.4,0,0,0,29.74,9.83V60.68Q404.9,61.52,390.08,63.77Z" transform="translate(441.38 116.58)"/>
      <path class="cls-1" d="M433.85,750.24a10,10,0,0,1-4.39-1c-3.56-1.76-9.52-6.24-9.46-16.47,0-5.33,0-10.57,0-16.08-52.83-2.95-101.37-15.82-144.41-38.3C230.35,654.71,190,619.83,155.77,574.7a10.05,10.05,0,0,1-1.71-8.58l.4-1.49a10,10,0,0,1,9.67-7.47c.94,0,1.89,0,2.84-.06,1.14,0,2.28-.06,3.42-.06a39.23,39.23,0,0,1,5.93.39c5,.73,8.72,4.26,10.93,7.09,35.93,46.7,83.18,81.19,140.48,102.58A318,318,0,0,0,420,686.18v-50c0-16.06,10.66-18,13.92-18.17l.95,0c6.77,0,14.67,4.77,14.67,18.22v50c3.52-.16,6.92-.35,10.26-.67,76.28-7.13,142.45-37.58,196.69-90.5,8.21-8,15.83-17.3,23.19-26.29l2.38-2.9c2-2.39,7.19-8.79,16.37-8.79a21.15,21.15,0,0,1,3.14.24c.23,0,.77,0,1.21.06a26.16,26.16,0,0,1,6.16.75,10,10,0,0,1,5.62,15.5c-32,44.71-72.24,79.93-119.64,104.68-44.87,23.41-93.7,36.27-145.31,38.27,0,5.4,0,10.53,0,15.75,0,8.1-3.15,13.78-9.37,16.94a10,10,0,0,1-4.54,1.09Z" transform="translate(441.38 116.58)"/>
      <path class="cls-1" d="M515.84,59.34a10.2,10.2,0,0,1-2.32-.27,331,331,0,0,0-74.44-9,10,10,0,0,1-9.94-10V.55a10,10,0,0,1,3-7.13,10,10,0,0,1,7-2.87h.17l9.42.14c7.35.09,15,.19,22.49.46,23.43.79,46.06,5.88,69.12,11.47a10,10,0,0,1,7,13.13c-5.7,15.72-14.34,30.1-24.32,40.51A10,10,0,0,1,515.84,59.34Z" transform="translate(441.38 116.58)"/>
      <path class="cls-1" d="M354.61,59.47a10,10,0,0,1-7.46-3.34,121.28,121.28,0,0,1-24-40.45A10,10,0,0,1,330.6,2.54c4.91-1,9.93-2.11,14.79-3.17,11.25-2.47,22.88-5,34.61-6.75A233.63,233.63,0,0,1,414.87-10c5.42,0,10.91.2,16.32.57A10,10,0,0,1,440.49.7l-.18,11.55q-.15,8.9-.28,17.8v10a10,10,0,0,1-9.87,10,333.36,333.36,0,0,0-73.22,9.15A10.22,10.22,0,0,1,354.61,59.47Z" transform="translate(441.38 116.58)"/>
      <path class="cls-1" d="M27.1,495.65a10,10,0,0,1-10-10V447.9a10,10,0,0,1,9.46-10v-70.7a10,10,0,0,1-9.41-10v-38a10,10,0,0,1,10-10H129.54a10,10,0,0,1,7,2.89l6.17,6.11c6.25,6.16,12.71,12.54,19.06,19a10.66,10.66,0,0,1,.76.88,16.89,16.89,0,0,1,3.56,10.72c.08,35.59.08,71.69,0,107.28,0,.1,0,.2,0,.31a18.15,18.15,0,0,1-4.58,11.48l-.28.3c-6.39,6.61-12.9,13.12-19.2,19.42L137,492.71a10,10,0,0,1-7.08,2.94Zm73.68-57.8q0-8.87,0-17.72c0-16.62-.05-33.8.14-50.72a20.37,20.37,0,0,0-.07-2.19H92.46v70.63Z" transform="translate(441.38 116.58)"/>
      <path class="cls-1" d="M709.73,495.44a10,10,0,0,1-10-10V447.92a10,10,0,0,1,9.45-10V367.06a10,10,0,0,1-9.4-10V319.27a10,10,0,0,1,10-10H831.45a10,10,0,0,1,10,10V362.7a10,10,0,0,1-10,10H817.73a10,10,0,0,1,1.11,4.59v50.37a9.91,9.91,0,0,1-1,4.42H831.5a10,10,0,0,1,10,10v43.36a10,10,0,0,1-10,10Z" transform="translate(441.38 116.58)"/>
      <path class="cls-1" d="M358.88,495.53a10,10,0,0,1-10-10V455a10,10,0,0,1,7.7-9.73V389.64a10,10,0,0,1-7.68-9.73V349.14a10,10,0,0,1,10-10h53.35a9.92,9.92,0,0,1,5.61,1.72,10,10,0,0,1,5.48-1.63h53.3a10,10,0,0,1,10,10v30.46a10,10,0,0,1-7.51,9.69v55.76a10,10,0,0,1,7.48,9.68V485.5a10,10,0,0,1-10,10H423.27a10,10,0,0,1-5.46-1.62,10,10,0,0,1-5.51,1.65ZM414.46,445a10,10,0,0,1,3.48,1.51,9.81,9.81,0,0,1,3-1.27v-3.08h-6.47Zm4.09-56.47a8.15,8.15,0,0,1-.8-.49,8.45,8.45,0,0,1-.82.49Z" transform="translate(441.38 116.58)"/>
      <path class="cls-1" d="M169.09,495.58a10,10,0,0,1-10-10V454.8a10,10,0,0,1,10-10h1.07l23.53-58.58a10,10,0,0,1-2.35-6.44V349.25a10,10,0,0,1,10-10h72.28a10,10,0,0,1,10,10V379.8a10,10,0,0,1-3.1,7.24l23.21,57.86h1.09a10,10,0,0,1,10,10v30.66a10,10,0,0,1-10,10h-51.7a10,10,0,0,1-10-10V459.08H230.77v26.5a10,10,0,0,1-10,10Z" transform="translate(441.38 116.58)"/>
      <path class="cls-1" d="M508.26,495.8a10,10,0,0,1-7.09-2.95l-4.95-5c-4.9-4.91-10-10-14.86-15.1l-.29-.31a17.58,17.58,0,0,1-4.34-11.09v-.22c-.11-29-.11-58.42,0-87.43,0-.18,0-.37,0-.55a18.3,18.3,0,0,1,4.87-11.37l.15-.15c4.72-4.85,9.47-9.48,14.5-14.39,1.84-1.8,3.71-3.62,5.6-5.48a10,10,0,0,1,7-2.87c18.69,0,38,0,57.31.08.23,0,.46,0,.68,0a16.79,16.79,0,0,1,10.46,4.67c7.18,7,13,12.78,18.3,18.35q.14.13.27.3a18.38,18.38,0,0,1,4.53,11.42c0,.11,0,.21,0,.32.12,28.69.12,57.77,0,86.44,0,.15,0,.3,0,.45a19.07,19.07,0,0,1-4.82,11.76l-.17.19c-5.69,6.06-11.66,12-17.73,17.73l-.14.14a19.15,19.15,0,0,1-11.72,4.88h-.45c-11.25.1-22.53.11-31.1.11ZM534,389.88c-.05,16.31,0,32.73,0,48.64v6.34c1.23-.08,2.52-.12,4-.12,1.15,0,2.29,0,3.44.05l1.55,0c0-18.24,0-36.69,0-54.93l-4.81,0Z" transform="translate(441.38 116.58)"/>
      <path class="cls-1" d="M658.27,325.75a10,10,0,0,1-8.59-4.87l-3.41-5.72v.49a10,10,0,0,1-10,10H596a10,10,0,0,1-10-10V292.23a10,10,0,0,1,5.43-8.9V244.86a10,10,0,0,1-5.58-9V212.4a10,10,0,0,1,10-10h33.64a10,10,0,0,1,8.59,4.87l4,6.7v-1.56a10,10,0,0,1,10-10h40.49a10,10,0,0,1,10,10v23.67a10,10,0,0,1-5.69,9v37.83a10,10,0,0,1,5.65,9v23.8a10,10,0,0,1-10,10Z" transform="translate(441.38 116.58)"/>
      <path class="cls-1" d="M600.74,495.51a10,10,0,0,1-10-10V455.08a10,10,0,0,1,7.6-9.71V389.43a10,10,0,0,1-7.42-9.66V349.25a10,10,0,0,1,10-10h53.26a10,10,0,0,1,10,10v30.47a10,10,0,0,1-7.79,9.75v55.06h4.88A10,10,0,0,1,671,437H701.4a10,10,0,0,1,10,10v38.54a10,10,0,0,1-10,10Z" transform="translate(441.38 116.58)"/>
      <path class="cls-1" d="M387,326c-6.58,0-12.63,0-18.49-.09l-.48,0a18.65,18.65,0,0,1-11.15-4.58c-2.37-2.13-4.49-4.26-6.53-6.32-1.84-1.84-3.57-3.58-5.34-5.19a18.46,18.46,0,0,1-6.18-14.76c.09-13.37.08-26.95.07-40.08q0-4.82,0-9.65a10,10,0,0,1-5.82-9.09v-24a10,10,0,0,1,10-10h40.45a10,10,0,0,1,5.17,1.44,10,10,0,0,1,4.76-1.2h40.39a10,10,0,0,1,10,10v23.41a10,10,0,0,1-5.6,9v54.95a10,10,0,0,1-3.06,7.2l-2.7,2.61c-4.22,4.08-8.59,8.3-13.12,12.44a8.89,8.89,0,0,1-.74.61,16.46,16.46,0,0,1-9.84,3.28h-.21C400.33,326,393.48,326,387,326Zm2.59-43.94c.06-10.8.05-21.76,0-32.4v-4.59a9.67,9.67,0,0,1-1.12-.55,9,9,0,0,1-1,.52v37Z" transform="translate(441.38 116.58)"/>
      <path class="cls-1" d="M221.88,326.29c-1.29,0-2.63-.07-4-.19-3.08-.29-6.41-.42-10.47-.42-3.21,0-6.54.09-9.76.17l-6.88.15-1.11,0a17.93,17.93,0,0,1-13.25-5.87c-2.75-3-5.58-5.85-8.58-8.91-1.68-1.7-3.38-3.43-5.1-5.22a10,10,0,0,1-2.81-6.95V280a10,10,0,0,1,6.82-9.48c-.73-.77-1.45-1.54-2.16-2.32l-.29-.33a18.63,18.63,0,0,1-4.33-11.2c0-.05,0-.09,0-.14-.23-9-.23-17,0-24.57,0-.11,0-.21,0-.31a20.33,20.33,0,0,1,4.81-11.88l.19-.22c3.42-3.77,7-7.31,10.48-10.74,1.28-1.27,2.57-2.54,3.84-3.83a10,10,0,0,1,7.09-2.94h18.76c7.17,0,15.69,0,24.42.09a8.46,8.46,0,0,1,.87,0,18,18,0,0,1,9.63,3.92l.21.18a47.78,47.78,0,0,1,5.07,5c14.36,14.37,15.32,17.36,13,38.65a10,10,0,0,1-5.75,8,27.82,27.82,0,0,1,4.79,7.46c2.35,5.56,2,11.12,1.69,16a40.37,40.37,0,0,0-.1,6c1.28,12.28-4.27,20.1-9.86,26.15C241.07,322.24,232.42,326.29,221.88,326.29Z" transform="translate(441.38 116.58)"/>
      <path class="cls-1" d="M310.23,326.43c-2.16,0-4.24-.13-6.25-.26-1.77-.11-3.44-.22-4.94-.22h-.19q-5.1,0-10.21,0l-16.44,0a10,10,0,0,1-7.11-3l-3.86-3.87c-3.52-3.52-7.16-7.17-10.67-10.93a17.8,17.8,0,0,1-4.66-10.86c0-.19,0-.38,0-.58-.13-21.74-.13-43.78,0-65.51,0-.1,0-.2,0-.3a16.85,16.85,0,0,1,4.26-10.6l.23-.24c3.64-3.82,7.44-7.56,11.11-11.18q2-2,4-4a10,10,0,0,1,7-2.9h18.53c7.15,0,15.63,0,24.35.09h0a16.4,16.4,0,0,1,7.57,2.14l.62.31a11.11,11.11,0,0,1,4.23,3.19c1.09,1.11,2.43,2.29,3.83,3.54,4.22,3.73,9,8,11.64,14.14s2.15,12.4,1.72,18c-.14,1.86-.27,3.62-.27,5.16,0,3.89,0,7.76,0,11.63,0,11.34,0,23.07.1,34.51a19.09,19.09,0,0,1-6.44,15.07c-1.12,1.07-2.32,2.45-3.58,3.92-3.4,3.92-7.24,8.37-13.05,10.73A29.89,29.89,0,0,1,310.23,326.43ZM294.13,246c0,4.43,0,8.83,0,13.23V282h2.11c0-12,0-24,0-36Z" transform="translate(441.38 116.58)"/>
      <path class="cls-1" d="M441.93,325.74a10,10,0,0,1-10-10V292a10,10,0,0,1,5.66-9V245.09a10,10,0,0,1-5.65-9v-23.8a10,10,0,0,1,10-10h40.53a10,10,0,0,1,10,10V236a10,10,0,0,1-5.76,9.06v36.32a10,10,0,0,1,8.78-5.21h22.72a10,10,0,0,1,10,10l0,29.62a10,10,0,0,1-10,10Z" transform="translate(441.38 116.58)"/>
      <path class="cls-1" d="M539.68,610c-10.08,0-15.93-7-18.43-10-4.59-5.46-4.47-15.29-2.13-22.51-4.33-11.65-.46-24,10.26-30.69a10.62,10.62,0,0,1,1.42-.74,16.84,16.84,0,0,1,6.57-1.33l1,0h1l2.94,0,2.65,0c1.26,0,2.28,0,3.18-.09a20.7,20.7,0,0,1,2.08-.11,19.5,19.5,0,0,1,15.14,7.15c5.82,6.76,7.54,17.42,4.76,25.89,4.05,11.52.24,23.51-10.1,29.92a8.38,8.38,0,0,1-1.11.59,16.69,16.69,0,0,1-7,1.53h-1.16c-1,0-2.06,0-3.09-.08-.75,0-1.51-.06-2.26-.06a9.75,9.75,0,0,0-1.63.1A22.48,22.48,0,0,1,539.68,610Z" transform="translate(441.38 116.58)"/>
      <path class="cls-1" d="M485.12,610a29,29,0,0,1-4.49-.34,16.23,16.23,0,0,0-2.2-.13c-.92,0-1.81,0-2.67.08-1,0-2,.08-2.92.08a10,10,0,0,1-4.95-1.31c-9.8-5.57-14.25-14.36-13.23-26.1a128.47,128.47,0,0,0,.18-13.55c0-2.2-.09-4.47-.09-6.78a10,10,0,0,1,2.93-7.07l7.15-7.15a10,10,0,0,1,7.07-2.93h19.28a10,10,0,0,1,6.95,2.81l7.38,7.14a10,10,0,0,1,3.05,7.19v29.78a10,10,0,0,1-1.45,5.19C500.54,607.74,491.53,610,485.12,610Z" transform="translate(441.38 116.58)"/>
      <path class="cls-1" d="M430,609.35a10,10,0,0,1-9.89-8.49c-.59-3.89-2-13.45,5.05-21.54a10,10,0,0,1-5.23-8.79v-7.7a10,10,0,0,1,1-4.28c6.62-14,18.9-14,22.94-14,1.46,0,2.84.06,4.18.13,1.17,0,2.27.1,3.27.1a17.63,17.63,0,0,0,1.95-.09,9.14,9.14,0,0,1,1.16-.07,10,10,0,0,1,7,2.89l6.61,6.52a10,10,0,0,1,2.6,4.43c2.35,8.39,1.5,16-2.43,22.37a10,10,0,0,1,3.22,7.35v11.14a10,10,0,0,1-10,10Z" transform="translate(441.38 116.58)"/>
      <path class="cls-1" d="M352.12,610c-2.81,0-5.54-.21-8.06-.43-5.92-.54-10.48-5-12.61-8.66a35.26,35.26,0,0,1-3.16-7.9c-.31-1-.59-1.92-.92-2.87a10,10,0,0,1,.75-8.29c-2.58-9.19,1.47-20.55,9.28-25.64.23-.15.48-.29.72-.43a17.06,17.06,0,0,1,7.65-2c.81,0,1.68,0,2.64,0l2.5,0c.73,0,1.45,0,2.18,0,2.66,0,10.77,0,16.36,5.74,5.1,5.24,5.52,12.3,5.39,17.17a10.08,10.08,0,0,1-.81,3.69,15.94,15.94,0,0,1,.71,2.42c2.12,10.42-2.76,23.78-13.16,26.22A41.14,41.14,0,0,1,352.12,610Z" transform="translate(441.38 116.58)"/>
      <path class="cls-1" d="M577.45,263.28a10,10,0,0,1-6.94-2.8l-4.12-4c-4.26-4.08-8.66-8.31-12.92-12.61-3.73-3.73-3.78-8.91-3.79-10.61,0-4.56,0-9,0-13.76,0-2.34,0-4.69,0-7.09a10,10,0,0,1,10-10h24.94a10,10,0,0,1,10,10l0,23.63a10,10,0,0,1-6.13,9.2v7.54a10,10,0,0,1-6,9.15l-1,.44A10,10,0,0,1,577.45,263.28Z" transform="translate(441.38 116.58)"/>
      <path class="cls-1" d="M307.19,609.36a10,10,0,0,1-9.58-12.87c3.09-10.33,3.07-19.93-.07-29.34A10,10,0,0,1,307,554l26.79,0a10,10,0,0,1,10,10v10.07a10,10,0,0,1-3.5,7.6,10,10,0,0,1,3.36,7.47v10.21a10,10,0,0,1-10,10Z" transform="translate(441.38 116.58)"/>
      <path class="cls-1" d="M502,609.43a10,10,0,0,1-10-10V590a10,10,0,0,1,5.19-8.77v-2.73a10,10,0,0,1-5.21-8.78v-6.65a10,10,0,0,1,2.71-6.84c.48-.52,1-1.07,1.45-1.62,3.33-3.79,8.91-10.14,18.36-10.14a23.53,23.53,0,0,1,8.1,1.52,10,10,0,0,1,6.57,9.38l0,26.29a10,10,0,0,1,4.39,8.28v9.48a10,10,0,0,1-10,10Z" transform="translate(441.38 116.58)"/>
      <path class="cls-1" d="M375.33,609.33a10,10,0,0,1-9.8-12c.3-1.47.63-2.92,1-4.35a62.15,62.15,0,0,0,1.46-7.8c0-.3.06-.61.08-.92a10,10,0,0,1-9.85-10V564.08a10,10,0,0,1,10-10h29.53a10,10,0,0,1,10,10v10a10,10,0,0,1-10,10h-.3a20,20,0,0,0,.44,3.72c.13.56.28,1.13.43,1.71a42.05,42.05,0,0,1,1.57,9.53,10,10,0,0,1-10,10.29Z" transform="translate(441.38 116.58)"/>
      <rect class="cls-1" x="831.42" y="695.39" width="30.59" height="30.56" rx="10"/>
      <path class="cls-1" d="M439.82,95a10,10,0,0,1-10-10V50.33a10,10,0,0,1,10-10H440a332.08,332.08,0,0,1,68.94,8.47,10,10,0,0,1,4.14,17.43A124.75,124.75,0,0,1,440.42,95Z" transform="translate(441.38 116.58)"/>
      <path class="cls-1" d="M429.83,94.85l-.71,0c-26.64-1.9-50-11.2-71.41-28.44a10,10,0,0,1,4-17.53,335.82,335.82,0,0,1,67.87-8.59h.24a10,10,0,0,1,10,10V84.85a10,10,0,0,1-10,10Z" transform="translate(441.38 116.58)"/>
      <path class="cls-1" d="M82.46,457.85a10,10,0,0,1-10-10V357.17a10,10,0,0,1,10-10H105a10,10,0,0,1,4.87,1.27c11.13,6.21,11,17.06,11,21.14-.19,16.33-.16,33-.14,49.05q0,9.58,0,19.17c0,12.34-7.76,20-20.25,20Z" transform="translate(441.38 116.58)"/>
      <path class="cls-1" d="M228.16,432.73a10,10,0,0,1-9.31-13.66L227,398.26a10,10,0,0,1,9.21-6.34h1.11a10,10,0,0,1,9.3,6.32s6.37,16.1,8.23,20.83a10,10,0,0,1-9.3,13.67Z" transform="translate(441.38 116.58)"/>
      <path class="cls-1" d="M532.63,465.05c-7.28,0-13.22-3.38-17.19-9.77a10,10,0,0,1-1.5-5.27V386.83A17.21,17.21,0,0,1,531.07,370h.06q3.48,0,7,0,3.82,0,7.63,0c9.76,0,17.13,7.32,17.15,17,.06,20.23.06,40.74,0,61,0,9.71-7.17,16.86-17,17h-1.13c-1.18,0-2.35,0-3.52-.05s-2.06-.05-3.1-.05c-1.37,0-2.47.05-3.45.14l-.21,0C533.8,465,533.21,465.05,532.63,465.05Z" transform="translate(441.38 116.58)"/>
      <path class="cls-1" d="M293.25,302l-3.33,0c-9.47-.21-15.67-6.48-15.83-16v-.1c0-4.59,0-9.21,0-13.68,0-2.77,0-5.55,0-8.32V243c0-10.48,6.19-16.81,16.57-16.94h3.21l3.22,0c1.12,0,2.23,0,3.35,0,9.51.22,15.66,6.35,15.71,15.63.07,14.9.07,30,0,44.92,0,9-6.41,15.38-15.6,15.38h-4.07Z" transform="translate(441.38 116.58)"/>
      <path class="cls-1" d="M540.76,582.54a10,10,0,0,1-10-10v-8.3a10,10,0,0,1,10-10,9.83,9.83,0,0,1,2.09.22c.5.11,1.16.19,1.86.28,2.75.33,6.89.85,10.25,4.16l.11.11c3.78,3.84,3.6,8.64,3.5,11.51,0,.5-.05,1.13,0,1.41a10,10,0,0,1-10,10.61Z" transform="translate(441.38 116.58)"/>
      <rect class="cls-1" x="971.98" y="689.56" width="27.66" height="26.45" rx="10"/>
      <path class="cls-1" d="M477.23,599.37a10,10,0,0,1-10-10V565.08a10,10,0,0,1,9.5-10l8.78-.44H486a10,10,0,0,1,9.91,8.7,121.46,121.46,0,0,1,.64,18.09c-.05,2.68-.09,5.2,0,7.76a10,10,0,0,1-10,10.18Z" transform="translate(441.38 116.58)"/>
      <path class="cls-1" d="M426.62,166.06c-75.67-.13-147.33-6.92-213-20.2-43.19-8.73-77.37-19.12-107.55-32.68-24.25-10.91-42-22.84-56-37.55S30,45.41,31.11,28.23c.17-2.44.19-5,.2-7.64a92.17,92.17,0,0,1,.92-14.71C34.56-8,42.91-18.36,49.93-25.83c13.89-14.82,31.82-26.85,56.45-37.88,32.17-14.42,68.1-25.13,113.06-33.69C287.1-110.31,356.63-116.58,432-116.58c21.15,0,43,.51,65,1.53,54.07,2.51,102.42,7.91,147.8,16.5,35.42,6.7,81.69,17.06,125.52,37.93,19.95,9.46,35.88,20.45,48.71,33.6,14.76,15.17,21.28,31.27,20,49.21-.18,2.38-.2,4.86-.23,7.48a88.34,88.34,0,0,1-1,14.37C835.42,57.92,827,68.23,820,75.66c-19.63,20.79-44.27,32.74-63.55,40.83-33.76,14.16-72.16,24.77-120.86,33.38-62.49,11-128.88,16.17-208.93,16.19Zm9.63-233.73C361.17-67,295.67-61.24,236-49.95c-47,8.9-82,19.15-113.57,33.21C106.51-9.64,91.26-2.29,80,9.38c-3.15,3.25-11.5,11.87-11.5,15.38s8.33,12,11.47,15.23c7.14,7.28,17.55,13.19,25.91,17.95,24.07,13.68,50.38,22,70.61,27.63,62.22,17.44,130,27.14,213.41,30.54,15.67.66,31.56,1,47.23,1a1124.05,1124.05,0,0,0,170.11-13c50.73-7.84,91.07-18,126.92-32.09,19.14-7.51,39-16.44,54.94-30.84,4.12-3.74,7.49-9.11,11.05-14.79l1.15-1.82s0-.1,0-.14c-2.94-7.49-7.35-13.26-13.1-17.08l-.42-.29C776.23-.58,764.36-8.48,752.18-14.51,721.94-29.44,689.91-37.81,662.56-44,596.25-59.07,522.22-66.81,436.25-67.67Z" transform="translate(441.38 116.58)"/>
      <path d="M426.63,156.06c-65.47-.11-138.66-5.37-211-20-36.15-7.31-71.67-16.83-105.43-32C90.62,95.25,72.33,84.53,57.36,68.75,46.71,57.51,40,44.88,41.09,28.9c.48-7.13-.16-14.4,1-21.38C43.85-3,50-11.32,57.22-19c15-16,33.5-26.75,53.24-35.59,35.48-15.9,72.81-25.75,110.85-33,91-17.36,182.84-21.76,275.24-17.48,49.16,2.28,98,7.17,146.41,16.34,42.33,8,84,18.52,123.08,37.13,17,8.06,32.63,18,45.85,31.55C823.21-8.4,830.27,4.72,829,21.46c-.51,7,.11,14.06-1.07,20.87-1.82,10.48-8,18.8-15.25,26.45-16.85,17.85-37.9,29.15-60.16,38.49-38.15,16-78.13,25.57-118.73,32.75C568,151.63,501.6,156,426.63,156.06Zm9.63-233.73c-68.68.58-135.74,5.34-202.1,17.89-39.71,7.53-78.71,17.39-115.78,33.9-16.49,7.35-33,15.28-45.61,28.31-19.08,19.68-19.1,25,0,44.55C80.63,55,91,61,100.9,66.63c22.86,13,47.62,21.49,72.85,28.57,70.53,19.77,142.7,27.93,215.7,30.9A1131.29,1131.29,0,0,0,608.71,114c44-6.8,87.43-16.35,129.06-32.67,20.86-8.18,41.23-17.54,58-32.74,6-5.44,10.26-12.91,14.69-19.86,1.23-1.91,1-5.56.09-7.89C807.08,12,801.55,4.28,793.66-1c-12-8-24.14-16.12-37-22.5-29.11-14.38-60.27-23.13-91.84-30.3C589.13-70.94,512.34-76.91,436.26-77.67Z" transform="translate(441.38 116.58)"/>
      <g>
        <path class="cls-8" d="M433.9,740.24c-1.32.44-2.64,1.25-4,1.26-8.82.12-17.69.59-26.46-.07-12-.89-24-2.24-35.88-4.18a359,359,0,0,1-127.12-47.59,313,313,0,0,1-46.86-34.21c-13.22-11.82-25.4-24.82-37.81-37.52-13.94-14.27-25.76-30.26-36.23-47.18-7.92-12.81-15.1-26.07-23.11-40h-4.3c-12.49,0-25,.16-37.46-.12a19.4,19.4,0,0,1-8.82-2.54C32.16,520.32,18.68,512.18,5,504.32c-3.28-1.89-4.39-4.76-4.94-8.1a22.59,22.59,0,0,1,0-3.49V314c0-8.72,2.24-11,10.78-11H68c2.73-11.48,5.13-22.58,8-33.55A340.14,340.14,0,0,1,96.49,213c8.78-18.85,18.79-37,31-53.76,8.65-11.88,18-23.32,27.56-34.46,7.58-8.81,15.78-17.1,24.12-25.2A347.56,347.56,0,0,1,242,51.18a342.39,342.39,0,0,1,73.08-33.5,67.55,67.55,0,0,1,6.75-1.45c5.14,13,11.55,25.24,20.87,36.18C223.62,86.55,154.82,178.87,133.46,231.88h11.19a7.7,7.7,0,0,0,.81-1c.64-1.17,1.24-2.36,1.86-3.54C190.32,144.21,257.19,90,346.5,63c3.46-1,5.68-.5,8.36,2a111.45,111.45,0,0,0,56.89,28.32c6,1.07,12.09,1.61,18.28,2.41v72.16c0,1.82-.25,3.91.54,5.38s2.75,3.34,4.21,3.35,3.42-1.8,4.24-3.3.56-3.56.57-5.38V95.37c1.46-.1,2.43-.18,3.39-.23,27.29-1.36,51.31-10.94,71.59-29.21,3.84-3.47,6.88-3.82,11.45-2.41,88.39,27.4,154.65,81.37,197.27,163.82.82,1.6,1.7,3.17,2.57,4.79h12.21c-20.74-44.37-49.5-81.39-85.82-112.66s-77.73-53.3-124.43-66.93c9.49-11.23,15.86-23.39,20.92-36.29,8.79,2.91,17.75,5.39,26.34,8.8a326.44,326.44,0,0,1,71.57,38.72c11.91,8.61,23.35,17.94,34.47,27.56,9.4,8.15,18.37,16.87,27,25.89A353.72,353.72,0,0,1,755,178.71,338.6,338.6,0,0,1,790,257c4.42,14.86,7.85,30,12,46h45.78c7.23,0,9.81,2.63,9.81,10V493.8c0,5.57-2.1,9-7.18,11.81C838.05,512.36,826,519.61,814,527a22.78,22.78,0,0,1-13,3.88c-9.47-.24-19-.07-28.34-.07-2.63,4.89-5.25,9.46-7.59,14.17-8.12,16.4-18.1,31.67-28.89,46.36a332.15,332.15,0,0,1-21.64,25.89c-8.35,9.24-16.91,18.34-25.93,26.92A354.86,354.86,0,0,1,627,691a349.7,349.7,0,0,1-78.29,35.13,369.8,369.8,0,0,1-50.14,11.67,318,318,0,0,1-58.4,3.8c-1.5,0-3-.82-4.47-1.26,3.3-1.68,3.95-4.56,3.91-7.95-.1-8.43,0-16.86,0-25.58,53.56-.6,103.73-12.86,150.75-37.41s85.38-58.62,116.14-101.63c-2.32-.55-4.34-.32-6.27-.59-4.69-.68-7.45,1.47-10.37,5-8.44,10.28-16.82,20.74-26.32,30-56.45,55.08-124.22,86-202.73,93.3-6.89.65-13.83.79-21.2,1.19V636.18c0-5.63-1.75-8.41-5-8.21-3.07.18-4.54,2.75-4.54,8.19v60.29h-4.76c-34.69-1.5-68.45-7.8-101-20-58.26-21.69-107-56.37-145-105.78-1.13-1.45-2.86-3.11-4.51-3.35-3.5-.52-7.14-.16-10.72-.16l-.39,1.49c66.76,88,155.13,134.8,266.28,138.43v25.71C430,736,430.79,738.7,433.9,740.24Zm-304-254.59c8-8,16.21-16.12,24.18-24.38a8.15,8.15,0,0,0,2.06-5.16q.17-53.69,0-107.38a6.91,6.91,0,0,0-1.45-4.46c-8.38-8.52-16.93-16.88-25.14-25H27.15v38h9.41v90.67H27.1v37.75Zm701.6-43.57H794.6c-.19,2-.35,3.75-.51,5.41h-29V422.08h6.61c.13,1.92.25,3.66.38,5.54h36.77V377.29H771.76v6.36h-6.59V357.29H794.4v5.41h37.06V319.27H709.78v37.81h9.4V448h-9.45v37.52H831.5ZM469.13,454.82V379.73h7.51V349.27h-53.3v30.5l7.78.35v18.39H404.43V380.14l7.82-.47V349.14H358.9v30.77h7.68V455h-7.7v30.54H412.3V454.75h-7.84V432.14h26.47V455h-7.66V485.5h53.34V454.82Zm-300,0v30.76h51.71v-30.5l-4.1-.64c.73-2,1.35-3.66,2-5.33h36.58l1.66,5.37-3.79.65v30.42h51.7V454.9H297l-30.13-75.1h6.75V349.25H201.31v30.53l5.58.34-30,74.68Zm339.17,31c19.39,0,38.2.07,57-.1a9,9,0,0,0,5.55-2.31q8.89-8.39,17.29-17.3a9.06,9.06,0,0,0,2.29-5.59q.21-43.18,0-86.36a8.34,8.34,0,0,0-2.06-5.19c-5.83-6.17-11.86-12.15-18-18.05a6.73,6.73,0,0,0-4.23-1.89c-19.31-.12-38.61-.08-57.27-.08-7,6.83-13.57,13.17-19.95,19.72a8.21,8.21,0,0,0-2.2,5.13q-.2,43.67,0,87.35a7.51,7.51,0,0,0,1.86,4.75c6.46,6.71,13.07,13.25,19.68,19.9Zm87.55-249.91,5.58.42v55.51l-5.43.41v23.38h40.31V292.14l-5.59-.39V271l.76-.2c9,15,18,30.06,26.83,44.9h34.22v-23.8h-5.65V236.08h5.69V212.41H652v23.5l5.55.37v23.23L629.45,212.4H595.81Zm4.93,249.62H701.44V447H671v7.56H646.43V380.08l7.79-.35V349.25H601v30.52l7.42.36v74.56l-7.6.35ZM343,212.2v24h5.83v5.26c0,18,.06,35.94-.06,53.91a8.35,8.35,0,0,0,2.84,6.95c4.06,3.68,7.74,7.8,11.82,11.46a8.49,8.49,0,0,0,5.13,2.11c13.31.18,26.63.14,40,0a6.4,6.4,0,0,0,4-1.28c5.39-4.92,10.59-10,15.62-14.86V236.24l5.6-.41V212.42H393.37v23.4l6.17.49c0,17.11.07,33.89-.06,50.67,0,3-2,4.86-5.09,5-3.65.12-7.32.09-11,0-4.27-.09-5.93-1.76-6-6.13-.07-8,0-16,0-24v-25.6l6.05-.41V212.2ZM169.93,299.08c4.83,5,9.44,9.56,13.82,14.35A7.87,7.87,0,0,0,190.3,316c9.49-.12,19-.73,28.46.14,9.67.89,16.41-2.3,23-9.37,5.14-5.55,8-10.69,7.26-18.3-.68-6.42,1.48-13.69-.86-19.22-2.42-5.72-8.82-9.71-13.33-14.6a7.86,7.86,0,0,0-6.53-2.7c-8,.16-16,.1-24,0-4.14,0-6-1.93-6.09-6v-4.5c.11-3.34,2-5.22,5.2-5.38,3.83-.19,7.66-.07,11.5,0,3.43,0,5.17,1.92,5.34,5.23.13,2.44,0,4.9,0,7.51h28.18c2-18.36,2-18.37-10.35-30.73a39.29,39.29,0,0,0-4.28-4.18,8.09,8.09,0,0,0-4.32-1.76c-14.32-.13-28.64-.08-43.09-.08-4.7,4.73-9.53,9.31-14,14.23a10.21,10.21,0,0,0-2.43,6c-.27,8-.23,16,0,24a8.59,8.59,0,0,0,2,5.17c4.6,5,9.5,9.78,14.26,14.6,9.53,0,18.86-.05,28.18,0,4,0,5.67,1.76,5.84,5.73.07,1.67.07,3.34,0,5-.15,3.38-2,5.15-5.36,5.2-3.67.05-7.33.09-11,0s-5.59-2.15-5.7-5.91c-.06-1.93,0-3.87,0-6.06h-28.2ZM272.2,316h26.6c6.48,0,13.65,1.52,19.24-.76,5.4-2.2,9.08-8.51,13.7-12.81a9,9,0,0,0,3.14-7.35c-.18-15.47-.07-30.94-.09-46.42,0-6.48,1.73-13.75-.64-19.23-2.52-5.85-9-10-13.7-14.89-.23-.24-.42-.58-.71-.7-1.44-.61-2.91-1.65-4.38-1.66-14.3-.13-28.61-.08-42.79-.08-5.1,5.06-10.13,9.9-14.95,15a6.85,6.85,0,0,0-1.73,4.3q-.16,32.7,0,65.39a7.66,7.66,0,0,0,2,4.68c4.63,5,9.52,9.69,14.31,14.57Zm246.05-.22V286.13H495.53c-.16,2-.3,3.76-.45,5.58H476.71V236h5.76V212.29H441.94v23.79h5.65V292h-5.66v23.76ZM559,577.57c3.78-5.29,2.86-14.57-1.44-19.38a9.6,9.6,0,0,0-8.64-3.52c-3.63.28-7.3,0-11,.09a6.89,6.89,0,0,0-3.33.51c-8.15,5.12-9.26,14.25-4.57,22.12-2.72,3.42-3.51,13.46-1.21,16.2,3.38,4,7,7.27,13,6.2,3.06-.54,6.29,0,9.45-.12a6.9,6.9,0,0,0,3.29-.61C562.59,594.08,563,584.71,559,577.57ZM472,554.81,464.8,562c0,7.22.47,14.25-.13,21.19-.62,7.17,1.33,12.63,8.22,16.55,2.62,0,6-.4,9.26.08,7.25,1.08,12.53-1.57,16.46-8V562l-7.38-7.14Zm-17.47-.16c-8.68,1-18.89-3.61-24.46,8.18v7.7h11.59c.28-1.79.54-3.51.84-5.48h6.3c1.94,2.75.72,4.49-1.1,6.27-4.26,4.2-8,9-12.73,12.62-5.47,4.27-5.7,9.46-4.79,15.41h31.45V588.21H448.3c-.21-.4-.42-.79-.64-1.18,2.15-1.83,4.19-3.8,6.45-5.47,6.61-4.89,9.54-11.15,7-20.38ZM336.8,586.8c1.21,3.52,1.8,6.51,3.26,9,1,1.67,3.09,3.56,4.84,3.72,4.77.42,9.78.73,14.36-.34,4.35-1,6.8-8.77,5.63-14.52-.73-3.62-5.83-7-10.65-7h-6.83c.26-2.5.43-4.17.59-5.68h6.65c.35,1.62.64,3,.93,4.34h9.26c.2-9.38-2.93-12.64-11.75-12.64-2.33,0-4.66-.09-7,0a6.86,6.86,0,0,0-3.23.82c-4.29,2.81-6.6,9.94-5,14.91,1.08,3.35,6.29,6.23,11.26,6.24h5.57v5.62H348c-.35-1.72-.62-3.11-.91-4.54ZM584.58,236.08V212.41H559.64v20.76c0,1.24.12,2.89.89,3.66,5.52,5.57,11.23,11,16.88,16.41l1-.44V236.08Zm-250.77,328H307c4,11.93,3.69,23.59.16,35.38h26.48V589.18L320,592v-5.66l8.88.44V576.62l-8.85.49v-5.59l13.83,2.56Zm185.43,25.28v-34c-9.06-3.31-12.92,3.14-17.19,7.69v6.72l5.21.68v19l-5.19.6v9.42h21.55V590ZM378,572.4c0,4.22.34,9-.1,13.75-.41,4.36-1.65,8.65-2.58,13.21h14.48a41.12,41.12,0,0,0-1.74-9.26c-1.35-5.79-.4-12.13-.4-17.52l10,1.53v-10H368.15v10.19Zm22,16.41v10.56h10.59V588.81Z" transform="translate(441.38 116.58)"/>
        <path class="cls-9" d="M548.76,16.23c-5.06,12.9-11.43,25.06-20.92,36.29,46.7,13.63,88.1,35.65,124.43,66.93s65.08,68.29,85.82,112.66H725.88c-.87-1.62-1.75-3.19-2.57-4.79C680.69,144.87,614.43,90.9,526,63.5c-4.57-1.41-7.61-1.06-11.45,2.41C494.31,84.18,470.29,93.76,443,95.12c-1,0-1.93.13-3.39.23v72.53c0,1.82.23,3.92-.57,5.38s-2.78,3.31-4.24,3.3-3.4-1.83-4.21-3.35-.53-3.56-.54-5.38V95.67c-6.19-.8-12.28-1.34-18.28-2.41a111.45,111.45,0,0,1-56.89-28.32c-2.68-2.47-4.9-3-8.36-2-89.33,27.14-156.21,81.28-199.2,164.41-.62,1.18-1.22,2.37-1.86,3.54a7.7,7.7,0,0,1-.81,1H133.46c21.36-53,90.16-145.33,209.25-179.47C333.39,41.48,327,29.2,321.84,16.24l10.81-3.89a112,112,0,0,0,22,37.13A342.58,342.58,0,0,1,430,40.08V30c.14-9.81.31-19.62.46-29.43h8.65v39.5a340.49,340.49,0,0,1,76.7,9.25c9.13-9.56,16.94-22.7,22.14-37ZM439.82,85a115.64,115.64,0,0,0,66.86-26.45,321.71,321.71,0,0,0-66.86-8.21Zm-10-34.72A325.31,325.31,0,0,0,364,58.6c19.76,15.91,41.24,24.5,65.85,26.25Z" transform="translate(441.38 116.58)"/>
        <path class="cls-9" d="M433.9,740.24c-3.11-1.54-3.92-4.22-3.9-7.45.06-8.48,0-17,0-25.71-111.13-3.63-199.5-50.48-266.26-138.43l.39-1.49c3.58,0,7.22-.36,10.72.16,1.65.24,3.38,1.9,4.51,3.35,38,49.38,86.71,84.09,144.87,105.8,32.56,12.16,66.32,18.46,101,20,1.32.06,2.64,0,4.76,0V636.14c0-5.44,1.47-8,4.54-8.19,3.29-.2,5,2.58,5,8.21V696.6c7.37-.4,14.31-.54,21.2-1.19,78.51-7.34,146.28-38.22,202.73-93.3,9.5-9.27,17.88-19.73,26.32-30,2.92-3.57,5.68-5.72,10.37-5,1.93.27,4,0,6.27.59-30.76,43-69.24,77.15-116.14,101.63s-97.1,36.75-150.66,37.39c0,8.72-.07,17.15,0,25.58,0,3.39-.61,6.27-3.91,8Z" transform="translate(441.38 116.58)"/>
        <path class="cls-8" d="M538,12.34c-5.2,14.33-13,27.47-22.14,37a340.43,340.43,0,0,0-76.7-9.26V.55c10.58.18,21.16.22,31.73.59C493.73,1.92,515.88,7,538,12.34Z" transform="translate(441.38 116.58)"/>
        <path class="cls-8" d="M430.49.55c-.15,9.81-.32,19.62-.46,29.43V40.05a343.47,343.47,0,0,0-75.42,9.42,112,112,0,0,1-22-37.13c16.27-3.34,32.44-7.4,48.85-9.83A224,224,0,0,1,430.49.55Z" transform="translate(441.38 116.58)"/>
        <path d="M129.87,485.65H27.1V447.9h9.46V357.23H27.15v-38H129.54c8.21,8.13,16.76,16.49,25.14,25a6.91,6.91,0,0,1,1.45,4.46q.12,53.69,0,107.38a8.15,8.15,0,0,1-2.06,5.16C146,469.53,137.9,477.6,129.87,485.65Zm-47.41-37.8h18.07c7,0,10.25-3.15,10.25-10,0-22.78-.14-45.56.12-68.33.06-5.24-.76-9.47-5.83-12.3H82.46Z" transform="translate(441.38 116.58)"/>
        <path d="M831.5,442.08v43.36H709.73V447.92h9.45V357.08h-9.4V319.27H831.45V362.7H794.39v-5.41H765.16v26.36h6.59v-6.36h37.09v50.37H772c-.13-1.88-.25-3.62-.38-5.54H765v25.37h29c.16-1.66.32-3.41.51-5.41Z" transform="translate(441.38 116.58)"/>
        <path class="cls-10" d="M469.13,454.82h7.48V485.5H423.27V455h7.66V432.14H404.46v22.61h7.84v30.78H358.88V455h7.7V379.91H358.9V349.14h53.35v30.53l-7.82.47v18.37h26.69V380.08l-7.78-.35v-30.5h53.3v30.46h-7.51Z" transform="translate(441.38 116.58)"/>
        <path class="cls-10" d="M169.09,454.8h7.83l30-74.68-5.58-.34V349.25h72.28V379.8h-6.78L297,454.9h7.85v30.66h-51.7V455.14l3.79-.65-1.66-5.41H218.67c-.62,1.67-1.24,3.34-2,5.33l4.1.64v30.53H169.09Zm68.26-52.89h-1l-8.18,20.81h17.42c-2.84-7.16-5.55-14-8.24-20.81Z" transform="translate(441.38 116.58)"/>
        <path class="cls-10" d="M508.26,485.8c-6.61-6.65-13.24-13.19-19.67-19.92a7.51,7.51,0,0,1-1.86-4.75q-.17-43.68,0-87.35a8.21,8.21,0,0,1,2.2-5.13c6.38-6.55,13-12.89,19.95-19.72,18.66,0,38,0,57.27.08a6.73,6.73,0,0,1,4.23,1.89c6.1,5.9,12.13,11.88,18,18.05a8.34,8.34,0,0,1,2.06,5.19q.18,43.19,0,86.36a9.06,9.06,0,0,1-2.29,5.59q-8.37,8.91-17.29,17.3a9,9,0,0,1-5.55,2.31C546.46,485.87,527.65,485.8,508.26,485.8ZM523.94,450c2.42,3.9,5.53,5.3,9.81,4.9,4-.37,8,0,12-.09,4.3-.06,7.15-2.77,7.16-7q.06-30.45,0-60.91c0-4.17-2.95-6.92-7.21-7-4.83-.05-9.66-.06-14.48,0a7.12,7.12,0,0,0-7.23,7C523.92,408.08,523.94,429.23,523.94,450Z" transform="translate(441.38 116.58)"/>
        <path class="cls-10" d="M595.81,235.89V212.4h33.64l28.14,47.11V236.28l-5.55-.37v-23.5h40.49v23.67h-5.69V292h5.65v23.8H658.27c-8.86-14.84-17.84-29.87-26.83-44.9l-.76.2v20.74l5.59.39v23.47H596V292.23l5.43-.41V236.31Z" transform="translate(441.38 116.58)"/>
        <path d="M600.74,485.51V455.08l7.6-.35v-74.6l-7.42-.36V349.25h53.26v30.47l-7.79.35v74.46H671V447H701.4v38.54Z" transform="translate(441.38 116.58)"/>
        <path class="cls-11" d="M343,212.2h40.45v23.66l-6.05.41v49.6c0,4.37,1.69,6,6,6.13,3.66.08,7.33.11,11,0,3.1-.11,5.07-2,5.09-5,.13-16.78.06-33.56.06-50.67l-6.17-.49v-23.4h40.39v23.41l-5.6.41v63.52c-5,4.82-10.23,9.94-15.62,14.86a6.4,6.4,0,0,1-4,1.28c-13.32.1-26.64.14-40,0a8.49,8.49,0,0,1-5.13-2.11c-4.08-3.66-7.76-7.78-11.82-11.46a8.35,8.35,0,0,1-2.84-7c.12-18,.06-35.94.06-53.91v-5.26H343Z" transform="translate(441.38 116.58)"/>
        <path class="cls-10" d="M169.93,299.08V280h28.25v6.06c.11,3.76,2,5.8,5.7,5.91s7.32.06,11,0c3.37,0,5.21-1.82,5.36-5.2.08-1.66.08-3.33,0-5-.17-4-1.85-5.7-5.84-5.73-9.32-.07-18.65,0-28.18,0-4.76-4.82-9.66-9.58-14.26-14.6a8.59,8.59,0,0,1-2-5.17c-.21-8-.25-16,0-24a10.21,10.21,0,0,1,2.43-6c4.46-4.92,9.29-9.5,14-14.23,14.45,0,28.77-.05,43.09.08a8.09,8.09,0,0,1,4.32,1.76,38.31,38.31,0,0,1,4.24,4.21c12.37,12.36,12.37,12.37,10.35,30.73H220.25c0-2.61.11-5.07,0-7.51-.17-3.31-1.91-5.2-5.34-5.23-3.84,0-7.67-.15-11.5,0-3.24.16-5.09,2-5.2,5.38V246c.11,4.09,2,6,6.09,6,8,.06,16,.12,24,0a7.86,7.86,0,0,1,6.53,2.7c4.51,4.89,10.91,8.88,13.33,14.6,2.34,5.53.18,12.8.86,19.22.79,7.61-2.12,12.75-7.26,18.3-6.54,7.07-13.28,10.26-22.95,9.37-9.41-.87-19-.26-28.46-.14a7.87,7.87,0,0,1-6.55-2.59C179.37,308.63,174.76,304.08,169.93,299.08Z" transform="translate(441.38 116.58)"/>
        <path class="cls-11" d="M272.2,316c-4.79-4.84-9.68-9.61-14.32-14.59a7.66,7.66,0,0,1-2-4.68q-.19-32.7,0-65.39a6.85,6.85,0,0,1,1.73-4.3c4.82-5.05,9.85-9.89,14.95-14.95,14.18,0,28.49-.05,42.79.08,1.47,0,2.94,1.05,4.38,1.66.29.12.48.46.71.7,4.74,4.89,11.18,9,13.7,14.89,2.37,5.48.63,12.75.64,19.23,0,15.48-.09,31,.09,46.42a9,9,0,0,1-3.14,7.35c-4.62,4.3-8.3,10.61-13.7,12.81-5.59,2.28-12.76.72-19.24.76C290,316,281.16,316,272.2,316Zm11.92-52v21.92c0,4.06,2,6.05,6,6.14,3.48.08,7,0,10.46,0s5.62-1.84,5.63-5.43q.09-22.41,0-44.82c0-3.84-2-5.59-5.9-5.68-3.16-.07-6.31,0-9.47,0-4.91.06-6.67,1.87-6.69,6.94,0,7,0,14,0,20.93Z" transform="translate(441.38 116.58)"/>
        <path class="cls-11" d="M518.25,315.74H441.93V292h5.66v-55.9h-5.65v-23.8h40.53V236h-5.76V291.7H495c.15-1.82.29-3.59.45-5.58h22.72Z" transform="translate(441.38 116.58)"/>
        <path class="cls-10" d="M559,577.57c4.06,7.14,3.6,16.54-4.38,21.49a6.9,6.9,0,0,1-3.29.61c-3.16.08-6.39-.42-9.45.12-6,1.07-9.64-2.18-13-6.2-2.3-2.74-1.51-12.78,1.21-16.2-4.69-7.87-3.58-17,4.57-22.12a6.89,6.89,0,0,1,3.33-.51c3.65-.06,7.32.19,11-.09a9.6,9.6,0,0,1,8.64,3.52C561.85,563,562.77,572.28,559,577.57Zm-10.43-5c-.15-2.45.52-5.4-.62-6.52-1.38-1.36-4.28-1.16-7.18-1.78v8.3Zm-.3,10.44h-7.66v6.45h7.66Z" transform="translate(441.38 116.58)"/>
        <path class="cls-11" d="M471.9,554.81h19.28l7.38,7.14v29.78c-3.93,6.48-9.21,9.13-16.46,8-3.25-.48-6.64-.08-9.26-.08-6.89-3.92-8.84-9.38-8.22-16.55.6-6.94.13-14,.13-21.19Zm14.63,34.56c-.15-8.38.57-16.42-.52-24.77l-8.78.44v24.33Z" transform="translate(441.38 116.58)"/>
        <path class="cls-11" d="M454.43,554.65l6.61,6.53c2.58,9.23-.35,15.49-7,20.38-2.26,1.67-4.3,3.64-6.45,5.47.22.39.43.78.64,1.18h13.23v11.14H430c-.91-6-.68-11.14,4.79-15.41,4.68-3.65,8.47-8.42,12.73-12.62,1.82-1.78,3-3.52,1.1-6.27h-6.3c-.3,2-.56,3.69-.84,5.48H430v-7.7C435.54,551.08,445.75,555.66,454.43,554.65Z" transform="translate(441.38 116.58)"/>
        <path class="cls-12" d="M336.8,586.8H347c.29,1.43.56,2.82.91,4.54h6.74v-5.62h-5.57c-5,0-10.18-2.89-11.26-6.24-1.62-5,.69-12.1,5-14.91a6.86,6.86,0,0,1,3.23-.82c2.32-.12,4.65,0,7,0,8.82,0,12,3.26,11.75,12.64h-9.26c-.29-1.33-.58-2.72-.93-4.34H348c-.16,1.51-.33,3.18-.59,5.68h6.83c4.82,0,9.92,3.34,10.65,7,1.17,5.75-1.28,13.5-5.63,14.52-4.58,1.07-9.59.76-14.36.34-1.75-.16-3.87-2.05-4.84-3.72C338.6,593.31,338,590.32,336.8,586.8Z" transform="translate(441.38 116.58)"/>
        <path class="cls-13" d="M584.58,236.08h-6.13v16.76l-1,.44c-5.65-5.45-11.36-10.84-16.88-16.41-.77-.77-.88-2.42-.89-3.66-.08-6.8,0-13.61,0-20.76h24.94Z" transform="translate(441.38 116.58)"/>
        <path class="cls-11" d="M333.81,564v10.07L320,571.5v5.58l8.85-.49v10.15l-8.88-.44V592l13.73-2.81v10.21H307.19c3.53-11.79,3.82-23.45-.16-35.38Z" transform="translate(441.38 116.58)"/>
        <path class="cls-14" d="M519.24,589.29l4.38.66v9.48H502V590l5.19-.6v-19l-5.21-.68v-6.65c4.27-4.55,8.13-11,17.19-7.69Z" transform="translate(441.38 116.58)"/>
        <path class="cls-15" d="M378,572.4l-9.86,1.86V564.08h29.53v10l-10-1.53c0,5.39-.95,11.73.4,17.52.69,2.94,1.64,5.82,1.74,9.26H375.33c.93-4.56,2.17-8.85,2.58-13.21C378.35,581.42,378,576.62,378,572.4Z" transform="translate(441.38 116.58)"/>
        <path d="M400,588.81h10.59v10.56H400Z" transform="translate(441.38 116.58)"/>
        <path class="cls-16" d="M439.82,85V50.33a321.71,321.71,0,0,1,66.86,8.21A115.64,115.64,0,0,1,439.82,85Z" transform="translate(441.38 116.58)"/>
        <path class="cls-16" d="M429.83,50.27V84.85C405.22,83.1,383.74,74.51,364,58.6A325.31,325.31,0,0,1,429.83,50.27Z" transform="translate(441.38 116.58)"/>
        <path class="cls-17" d="M82.46,447.85V357.17H105c5.07,2.83,5.89,7.06,5.83,12.3-.26,22.77-.11,45.55-.12,68.33,0,6.9-3.21,10-10.25,10Z" transform="translate(441.38 116.58)"/>
        <path class="cls-18" d="M237.35,401.91c2.7,6.83,5.4,13.65,8.23,20.82H228.16l8.18-20.81Z" transform="translate(441.38 116.58)"/>
        <path class="cls-19" d="M523.94,450V387a7.12,7.12,0,0,1,7.23-7c4.82-.06,9.65-.05,14.48,0,4.26,0,7.2,2.8,7.21,7q.09,30.47,0,60.91c0,4.24-2.86,6.95-7.16,7-4,.06-8-.28-12,.09A9.64,9.64,0,0,1,523.94,450Z" transform="translate(441.38 116.58)"/>
        <path class="cls-20" d="M284.12,263.91V243c0-5.07,1.78-6.88,6.69-6.94,3.16,0,6.31-.06,9.47,0,3.93.09,5.88,1.84,5.9,5.68q.1,22.41,0,44.82c0,3.59-2,5.44-5.63,5.43s-7,.06-10.46,0c-4-.09-5.93-2.08-6-6.14C284,278.52,284.12,271.22,284.12,263.91Z" transform="translate(441.38 116.58)"/>
        <path class="cls-21" d="M548.56,572.54h-7.8v-8.3c2.9.62,5.8.42,7.18,1.78C549,567.14,548.41,570.08,548.56,572.54Z" transform="translate(441.38 116.58)"/>
        <path class="cls-22" d="M548.26,583v6.45H540.6V583Z" transform="translate(441.38 116.58)"/>
        <path class="cls-23" d="M486.53,589.37h-9.3V565.08l8.78-.44C487.1,573,486.38,581,486.53,589.37Z" transform="translate(441.38 116.58)"/>
      </g>
    </g>
  </g>
</svg>
