<svg width="423" height="113" viewBox="0 0 423 113" fill="none" xmlns="http://www.w3.org/2000/svg">
<path fill-rule="evenodd" clip-rule="evenodd" d="M0.878906 12.4663L8.2739 9.2473C35.7648 -2.71932 66.993 -2.71932 94.4839 9.2473L101.879 12.4663V62.209C101.879 90.0994 79.2693 112.709 51.3789 112.709C23.4885 112.709 0.878906 90.0994 0.878906 62.209V12.4663ZM16.8789 22.986V44.7544C18.5852 44.3414 20.2608 43.7958 21.8901 43.1209C26.0152 41.4123 29.7633 38.9078 32.9205 35.7506C36.0777 32.5935 38.5821 28.8453 40.2908 24.7203C41.3587 22.1422 42.1027 19.4484 42.5105 16.7006C33.7831 17.5455 25.148 19.6407 16.8789 22.986ZM16.8818 62.6643C18.5871 63.0773 20.2617 63.6226 21.8901 64.2971C26.0152 66.0058 29.7633 68.5102 32.9205 71.6674C36.0777 74.8246 38.5821 78.5727 40.2908 82.6978C41.9925 86.8059 42.8717 91.2078 42.8789 95.654C28.0763 91.9035 17.0877 78.584 16.8818 62.6643ZM50.8789 68.5797C48.9656 65.6176 46.7397 62.8591 44.2342 60.3537C41.7288 57.8482 38.9703 55.6223 36.0082 53.709C38.9703 51.7957 41.7288 49.5698 44.2342 47.0644C46.7397 44.5589 48.9656 41.8004 50.8789 38.8383C52.7922 41.8004 55.0181 44.5589 57.5236 47.0644C60.029 49.5698 62.7875 51.7957 65.7496 53.709C62.7875 55.6223 60.029 57.8482 57.5236 60.3537C55.0181 62.8591 52.7922 65.6176 50.8789 68.5797ZM58.8789 95.8915C74.255 92.4829 85.7719 78.8145 85.8782 62.4376C83.8264 62.8693 81.8141 63.4909 79.8677 64.2971C75.7426 66.0058 71.9945 68.5102 68.8373 71.6674C65.6801 74.8246 63.1757 78.5727 61.467 82.6978C59.7583 86.8228 58.8789 91.2441 58.8789 95.709V95.8915ZM79.8677 43.1209C81.8143 43.9272 83.8269 44.5489 85.8789 44.9806V22.986C77.2898 19.5112 68.3059 17.3852 59.2337 16.6081C59.6385 19.388 60.3871 22.1133 61.467 24.7203C63.1757 28.8453 65.6801 32.5935 68.8373 35.7506C71.9945 38.9078 75.7426 41.4123 79.8677 43.1209Z" fill="white"></path>
<path d="M128.66 8.52625V51.2091H155.588V43.4746H137.54V8.52625H128.66Z" fill="white"></path>
<path d="M264.274 51.2091H272.868V19.9274H264.274V51.2091Z" fill="white"></path>
<path d="M264.274 8.52625V17.1201H272.868V8.52625H264.274Z" fill="white"></path>
<path fill-rule="evenodd" clip-rule="evenodd" d="M277.438 62.6675V19.9274H285.459V23.1726C286.386 22.082 287.531 21.2104 288.896 20.5577C290.691 19.6791 292.735 19.2399 295.027 19.2399C298.006 19.2399 300.698 19.9656 303.105 21.4171C305.511 22.8685 307.421 24.8355 308.834 27.3182C310.247 29.7626 310.954 32.5127 310.954 35.5682C310.954 38.5856 310.247 41.3357 308.834 43.8184C307.459 46.301 305.568 48.2681 303.162 49.7195C300.756 51.1709 298.025 51.8966 294.969 51.8966C292.83 51.8966 290.844 51.5146 289.011 50.7507C287.882 50.2463 286.889 49.5983 286.032 48.8067V62.6675H277.438ZM293.938 44.1621C295.542 44.1621 296.955 43.7993 298.178 43.0735C299.4 42.3478 300.355 41.3357 301.042 40.037C301.73 38.7385 302.073 37.2488 302.073 35.5682C302.073 33.8877 301.73 32.4172 301.042 31.1567C300.355 29.8581 299.4 28.8459 298.178 28.1202C296.955 27.3563 295.542 26.9744 293.938 26.9744C292.41 26.9744 291.035 27.3373 289.813 28.0629C288.629 28.7886 287.693 29.8008 287.006 31.0994C286.356 32.3981 286.032 33.8877 286.032 35.5682C286.032 37.2488 286.356 38.7385 287.006 40.037C287.693 41.3357 288.629 42.3478 289.813 43.0735C291.035 43.7993 292.41 44.1621 293.938 44.1621Z" fill="white"></path>
<path d="M317.534 49.4903C320.093 51.0945 323.091 51.8966 326.529 51.8966C328.973 51.8966 331.093 51.4955 332.888 50.6935C334.683 49.8531 336.078 48.7073 337.071 47.2559C338.102 45.8045 338.618 44.1049 338.618 42.1569C338.618 39.9034 337.93 38.0128 336.555 36.4849C335.18 34.9189 333.194 33.754 330.597 32.9901L325.612 31.5005C324.848 31.2713 324.199 31.0231 323.664 30.7557C323.168 30.4883 322.805 30.1828 322.576 29.8391C322.347 29.4952 322.232 29.1133 322.232 28.6932C322.232 27.8911 322.537 27.2609 323.149 26.8026C323.798 26.3442 324.676 26.115 325.784 26.115C327.312 26.115 328.668 26.5161 329.852 27.3182C331.074 28.082 331.914 29.1133 332.373 30.4119L338.732 27.4327C337.777 24.8355 336.135 22.8303 333.805 21.4171C331.513 19.9656 328.84 19.2399 325.784 19.2399C323.454 19.2399 321.392 19.6601 319.596 20.5004C317.801 21.3024 316.407 22.4292 315.414 23.8806C314.421 25.332 313.925 27.0317 313.925 28.9796C313.925 31.1949 314.612 33.1238 315.987 34.7662C317.362 36.3704 319.329 37.5353 321.888 38.261L327.216 39.7506C327.904 39.9416 328.477 40.1708 328.935 40.4381C329.393 40.7055 329.737 41.011 329.966 41.3548C330.196 41.6603 330.31 42.0423 330.31 42.5006C330.31 43.3792 329.985 44.0667 329.336 44.5632C328.687 45.0597 327.751 45.308 326.529 45.308C324.848 45.308 323.321 44.8306 321.945 43.8757C320.57 42.9208 319.482 41.6031 318.68 39.9225L312.378 42.9017C313.294 45.6517 315.013 47.848 317.534 49.4903Z" fill="white"></path>
<path d="M374.613 19.9274H382.634V23.7062C383.221 22.5629 384.042 21.6471 385.098 20.9587C386.855 19.8129 388.955 19.2399 391.4 19.2399C393.997 19.2399 396.27 19.9083 398.218 21.2452C399.376 22.0027 400.281 22.9161 400.933 23.9856C401.761 22.7755 402.747 21.8047 403.89 21.0733C405.799 19.8511 408.034 19.2399 410.593 19.2399C412.846 19.2399 414.833 19.7365 416.551 20.7296C418.308 21.7226 419.683 23.1167 420.676 24.9119C421.669 26.6688 422.166 28.7314 422.166 31.0994V51.2091H413.572V32.9328C413.572 31.7106 413.343 30.6602 412.885 29.7817C412.464 28.9033 411.853 28.2158 411.051 27.7192C410.249 27.2227 409.275 26.9744 408.129 26.9744C407.022 26.9744 406.048 27.2227 405.208 27.7192C404.405 28.2158 403.775 28.9033 403.317 29.7817C402.897 30.6602 402.687 31.7106 402.687 32.9328V51.2091H394.093V32.9328C394.093 31.7106 393.864 30.6602 393.405 29.7817C392.985 28.9033 392.374 28.2158 391.572 27.7192C390.77 27.2227 389.796 26.9744 388.65 26.9744C387.542 26.9744 386.568 27.2227 385.728 27.7192C384.926 28.2158 384.296 28.9033 383.837 29.7817C383.417 30.6602 383.207 31.7106 383.207 32.9328V51.2091H374.613V19.9274Z" fill="white"></path>
<path d="M353.264 51.8966C350.743 51.8966 348.585 51.3619 346.79 50.2924C345.033 49.1848 343.696 47.657 342.78 45.709C341.863 43.761 341.405 41.4885 341.405 38.8912V19.9274H349.999V38.2037C349.999 39.3878 350.228 40.4381 350.686 41.3548C351.183 42.2333 351.87 42.9208 352.749 43.4173C353.627 43.9139 354.62 44.1621 355.728 44.1621C356.874 44.1621 357.867 43.9139 358.707 43.4173C359.586 42.9208 360.254 42.2333 360.712 41.3548C361.209 40.4381 361.457 39.3878 361.457 38.2037V19.9274H370.051V51.2091H362.03V47.4023C361.301 48.7758 360.27 49.8347 358.936 50.5789C357.332 51.4573 355.441 51.8966 353.264 51.8966Z" fill="white"></path>
<path fill-rule="evenodd" clip-rule="evenodd" d="M244.201 51.8966C241.107 51.8966 238.28 51.19 235.721 49.7768C233.2 48.3636 231.176 46.4348 229.648 43.9902C228.159 41.5076 227.414 38.7003 227.414 35.5682C227.414 32.3981 228.159 29.5908 229.648 27.1463C231.176 24.7018 233.2 22.7729 235.721 21.3597C238.28 19.9465 241.107 19.2399 244.201 19.2399C247.294 19.2399 250.102 19.9465 252.623 21.3597C255.143 22.7729 257.149 24.7018 258.638 27.1463C260.166 29.5908 260.93 32.3981 260.93 35.5682C260.93 38.7003 260.166 41.5076 258.638 43.9902C257.149 46.4348 255.143 48.3636 252.623 49.7768C250.102 51.19 247.294 51.8966 244.201 51.8966ZM244.201 44.1621C245.767 44.1621 247.123 43.7993 248.268 43.0735C249.452 42.3478 250.369 41.3357 251.018 40.037C251.706 38.7385 252.05 37.2488 252.05 35.5682C252.05 33.8877 251.706 32.4172 251.018 31.1567C250.369 29.8581 249.452 28.8459 248.268 28.1202C247.123 27.3563 245.767 26.9744 244.201 26.9744C242.635 26.9744 241.26 27.3563 240.076 28.1202C238.891 28.8459 237.956 29.8581 237.268 31.1567C236.619 32.4172 236.294 33.8877 236.294 35.5682C236.294 37.2488 236.619 38.7385 237.268 40.037C237.956 41.3357 238.891 42.3478 240.076 43.0735C241.26 43.7993 242.635 44.1621 244.201 44.1621Z" fill="white"></path>
<path fill-rule="evenodd" clip-rule="evenodd" d="M201.894 62.6103C203.956 63.4124 206.191 63.8134 208.597 63.8134C211.614 63.8134 214.269 63.2023 216.561 61.98C218.891 60.7578 220.724 59.0582 222.061 56.881C223.397 54.7421 224.066 52.2977 224.066 49.5476V19.9274H216.045V23.213C215.101 22.1056 214.032 21.2396 212.837 20.6149C211.156 19.6982 209.189 19.2399 206.935 19.2399C204.071 19.2399 201.512 19.8892 199.258 21.1879C197.005 22.4865 195.229 24.2817 193.93 26.5734C192.631 28.8268 191.982 31.4241 191.982 34.3651C191.982 37.3062 192.631 39.9416 193.93 42.2715C195.229 44.5632 197.024 46.3774 199.316 47.7142C201.607 49.0129 204.204 49.6622 207.107 49.6622C209.361 49.6622 211.328 49.2421 213.008 48.4017C213.919 47.9255 214.741 47.3203 215.472 46.586V49.5476C215.472 50.8845 215.186 52.0494 214.613 53.0424C214.078 54.0355 213.295 54.7803 212.264 55.2769C211.232 55.8116 210.01 56.0789 208.597 56.0789C206.802 56.0789 205.255 55.6588 203.956 54.8185C202.658 53.9782 201.798 52.8324 201.378 51.381L193.414 54.1883C194.064 56.1362 195.114 57.8168 196.566 59.23C198.055 60.6815 199.831 61.8082 201.894 62.6103ZM212.092 40.9537C211.022 41.5649 209.762 41.8704 208.31 41.8704C206.859 41.8704 205.56 41.5649 204.415 40.9537C203.307 40.3044 202.428 39.426 201.779 38.3183C201.168 37.2106 200.862 35.9311 200.862 34.4797C200.862 32.9901 201.168 31.6915 201.779 30.5838C202.428 29.438 203.307 28.5595 204.415 27.9484C205.56 27.2991 206.859 26.9744 208.31 26.9744C209.724 26.9744 210.965 27.2991 212.034 27.9484C213.104 28.5595 213.944 29.438 214.555 30.5838C215.167 31.6915 215.472 32.9901 215.472 34.4797C215.472 35.9693 215.167 37.2679 214.555 38.3756C213.982 39.4832 213.161 40.3427 212.092 40.9537Z" fill="white"></path>
<path fill-rule="evenodd" clip-rule="evenodd" d="M173.169 51.8966C170.075 51.8966 167.249 51.19 164.69 49.7768C162.169 48.3636 160.145 46.4348 158.617 43.9902C157.127 41.5076 156.383 38.7003 156.383 35.5682C156.383 32.3981 157.127 29.5908 158.617 27.1463C160.145 24.7018 162.169 22.7729 164.69 21.3597C167.249 19.9465 170.075 19.2399 173.169 19.2399C176.263 19.2399 179.07 19.9465 181.591 21.3597C184.112 22.7729 186.117 24.7018 187.607 27.1463C189.135 29.5908 189.899 32.3981 189.899 35.5682C189.899 38.7003 189.135 41.5076 187.607 43.9902C186.117 46.4348 184.112 48.3636 181.591 49.7768C179.07 51.19 176.263 51.8966 173.169 51.8966ZM173.169 44.1621C174.735 44.1621 176.091 43.7993 177.237 43.0735C178.421 42.3478 179.338 41.3357 179.987 40.037C180.675 38.7385 181.018 37.2488 181.018 35.5682C181.018 33.8877 180.675 32.4172 179.987 31.1567C179.338 29.8581 178.421 28.8459 177.237 28.1202C176.091 27.3563 174.735 26.9744 173.169 26.9744C171.603 26.9744 170.228 27.3563 169.044 28.1202C167.86 28.8459 166.924 29.8581 166.237 31.1567C165.588 32.4172 165.263 33.8877 165.263 35.5682C165.263 37.2488 165.588 38.7385 166.237 40.037C166.924 41.3357 167.86 42.3478 169.044 43.0735C170.228 43.7993 171.603 44.1621 173.169 44.1621Z" fill="white"></path>
<path fill-rule="evenodd" clip-rule="evenodd" d="M222.027 102.785C219.627 102.785 217.467 102.209 215.547 101.057C213.627 99.8731 212.107 98.2731 210.987 96.2571C209.899 94.2091 209.355 91.9051 209.355 89.3451C209.355 86.7531 209.899 84.4491 210.987 82.4331C212.107 80.4171 213.611 78.8331 215.499 77.6811C217.419 76.4971 219.595 75.9051 222.027 75.9051C224.235 75.9051 226.203 76.3851 227.931 77.3451C229.346 78.131 230.514 79.1421 231.435 80.3783V65.8731H235.035V102.209H231.435V98.0167C230.573 99.3796 229.421 100.473 227.979 101.297C226.219 102.289 224.235 102.785 222.027 102.785ZM222.219 99.1851C223.947 99.1851 225.499 98.7531 226.875 97.8891C228.283 97.0251 229.387 95.8571 230.187 94.3851C231.019 92.8811 231.435 91.2011 231.435 89.3451C231.435 87.4891 231.019 85.8251 230.187 84.3531C229.387 82.8491 228.283 81.6651 226.875 80.8011C225.499 79.9371 223.947 79.5051 222.219 79.5051C220.523 79.5051 218.987 79.9371 217.611 80.8011C216.235 81.6651 215.147 82.8331 214.347 84.3051C213.579 85.7771 213.195 87.4571 213.195 89.3451C213.195 91.2011 213.579 92.8811 214.347 94.3851C215.147 95.8571 216.219 97.0251 217.563 97.8891C218.939 98.7531 220.491 99.1851 222.219 99.1851Z" fill="#AAAAAA"></path>
<path fill-rule="evenodd" clip-rule="evenodd" d="M246.171 101.057C248.123 102.209 250.299 102.785 252.699 102.785C254.459 102.785 256.059 102.497 257.499 101.921C258.971 101.313 260.235 100.529 261.291 99.5691C262.347 98.5771 263.131 97.5051 263.643 96.3531L260.571 94.7211C259.771 96.0651 258.731 97.1851 257.451 98.0811C256.171 98.9771 254.587 99.4251 252.699 99.4251C251.067 99.4251 249.531 99.0091 248.091 98.1771C246.683 97.3451 245.563 96.1771 244.731 94.6731C244.085 93.4322 243.752 92.0242 243.732 90.4491H263.979C264.043 90.0331 264.091 89.6331 264.123 89.2491C264.135 89.0953 264.144 88.9482 264.152 88.8076C264.157 88.7104 264.161 88.6164 264.164 88.5255C264.167 88.4579 264.168 88.3922 264.169 88.3282C264.17 88.2655 264.171 88.2045 264.171 88.1451C264.171 86.6091 263.899 85.1211 263.355 83.6811C262.811 82.2091 262.027 80.8971 261.003 79.7451C259.979 78.5611 258.731 77.6331 257.259 76.9611C255.819 76.2571 254.171 75.9051 252.315 75.9051C249.979 75.9051 247.867 76.4811 245.979 77.6331C244.123 78.7851 242.651 80.3691 241.563 82.3851C240.475 84.3691 239.931 86.6571 239.931 89.2491C239.931 91.8411 240.491 94.1611 241.611 96.2091C242.731 98.2571 244.251 99.8731 246.171 101.057ZM243.789 87.0891C243.908 85.9543 244.206 84.9303 244.683 84.0171C245.451 82.5131 246.507 81.3451 247.851 80.5131C249.227 79.6811 250.715 79.2651 252.315 79.2651C253.915 79.2651 255.355 79.6811 256.635 80.5131C257.915 81.3131 258.891 82.4171 259.563 83.8251C260.069 84.814 260.318 85.902 260.312 87.0891H243.789Z" fill="#AAAAAA"></path>
<path d="M269.078 76.4811H272.678V79.6152C273.334 78.6026 274.182 77.7819 275.222 77.1531C276.63 76.3211 278.166 75.9051 279.83 75.9051C281.814 75.9051 283.606 76.4651 285.206 77.5851C286.443 78.4509 287.402 79.5175 288.085 80.7847C288.744 79.3909 289.688 78.2924 290.918 77.4891C292.518 76.4331 294.278 75.9051 296.198 75.9051C297.926 75.9051 299.51 76.3211 300.95 77.1531C302.422 77.9851 303.59 79.1371 304.454 80.6091C305.35 82.0491 305.798 83.6811 305.798 85.5051V102.209H302.198V86.8971C302.198 85.3291 301.91 84.0011 301.334 82.9131C300.79 81.8251 300.038 80.9931 299.078 80.4171C298.118 79.8091 297.014 79.5051 295.766 79.5051C294.55 79.5051 293.446 79.8091 292.454 80.4171C291.462 80.9931 290.678 81.8411 290.102 82.9611C289.526 84.0491 289.238 85.3611 289.238 86.8971V102.209H285.638V86.8971C285.638 85.3291 285.35 84.0011 284.774 82.9131C284.23 81.8251 283.478 80.9931 282.518 80.4171C281.558 79.8091 280.454 79.5051 279.206 79.5051C277.958 79.5051 276.838 79.8091 275.846 80.4171C274.886 80.9931 274.118 81.8411 273.542 82.9611C272.966 84.0491 272.678 85.3611 272.678 86.8971V102.209H269.078V76.4811Z" fill="#AAAAAA"></path>
<path d="M311.291 112.769C310.779 112.769 310.251 112.721 309.707 112.625C309.195 112.561 308.683 112.433 308.171 112.241V108.881C308.491 108.913 308.891 108.961 309.371 109.025C309.883 109.121 310.395 109.169 310.907 109.169C312.475 109.169 313.675 108.833 314.507 108.161C315.339 107.521 316.155 106.273 316.955 104.417L317.885 102.229L307.595 76.4811H311.483L319.906 97.7188L328.283 76.4811H332.267L320.507 105.473C319.995 106.721 319.339 107.905 318.539 109.025C317.771 110.145 316.795 111.041 315.611 111.713C314.427 112.417 312.987 112.769 311.291 112.769Z" fill="#AAAAAA"></path>
<path fill-rule="evenodd" clip-rule="evenodd" d="M187.454 101.873C188.734 102.481 190.19 102.785 191.823 102.785C193.327 102.785 194.703 102.561 195.95 102.113C197.23 101.633 198.334 101.009 199.262 100.241C199.905 99.7055 200.433 99.134 200.846 98.5267V102.209H204.447V84.5451C204.447 82.8491 204.031 81.3611 203.198 80.0811C202.398 78.7691 201.262 77.7451 199.791 77.0091C198.35 76.2731 196.687 75.9051 194.798 75.9051C193.359 75.9051 191.966 76.1771 190.622 76.7211C189.278 77.2331 188.078 77.9371 187.022 78.8331C185.999 79.7291 185.246 80.7211 184.766 81.8091L188.031 83.5851C188.606 82.3371 189.486 81.3291 190.671 80.5611C191.854 79.7611 193.23 79.3611 194.798 79.3611C196.59 79.3611 198.047 79.8411 199.167 80.8011C200.286 81.7611 200.846 83.0091 200.846 84.5451V85.8731L191.534 87.4251C189.646 87.7451 188.094 88.2891 186.879 89.0571C185.662 89.8251 184.766 90.7691 184.19 91.8891C183.615 92.9771 183.327 94.1931 183.327 95.5371C183.327 96.9451 183.694 98.1931 184.43 99.2811C185.167 100.369 186.174 101.233 187.454 101.873ZM200.846 89.1371V91.0731C200.846 92.6411 200.479 94.0651 199.742 95.3451C199.006 96.6251 197.982 97.6491 196.671 98.4171C195.359 99.1531 193.823 99.5211 192.062 99.5211C190.622 99.5211 189.438 99.1211 188.51 98.3211C187.615 97.5211 187.167 96.5451 187.167 95.3931C187.167 94.2091 187.567 93.1851 188.366 92.3211C189.198 91.4571 190.542 90.8651 192.398 90.5451L200.846 89.1371Z" fill="#AAAAAA"></path>
<path d="M169.27 102.785C166.742 102.785 164.518 102.193 162.598 101.009C160.678 99.8251 159.174 98.2251 158.086 96.2091C156.998 94.1611 156.454 91.8571 156.454 89.2971C156.454 86.7371 156.998 84.4491 158.086 82.4331C159.174 80.4171 160.678 78.8331 162.598 77.6811C164.518 76.4971 166.742 75.9051 169.27 75.9051C170.87 75.9051 172.374 76.1931 173.782 76.7691C175.19 77.3451 176.438 78.1291 177.526 79.1211C178.614 80.0811 179.43 81.2011 179.974 82.4811L176.71 84.1611C176.07 82.7851 175.094 81.6651 173.782 80.8011C172.47 79.9371 170.966 79.5051 169.27 79.5051C167.574 79.5051 166.038 79.9371 164.662 80.8011C163.318 81.6331 162.246 82.8011 161.446 84.3051C160.678 85.7771 160.294 87.4571 160.294 89.3451C160.294 91.2011 160.678 92.8811 161.446 94.3851C162.246 95.8571 163.318 97.0251 164.662 97.8891C166.038 98.7531 167.574 99.1851 169.27 99.1851C170.966 99.1851 172.454 98.7531 173.734 97.8891C175.046 97.0251 176.038 95.8731 176.71 94.4331L179.974 96.2091C179.43 97.4571 178.614 98.5771 177.526 99.5691C176.438 100.561 175.19 101.345 173.782 101.921C172.374 102.497 170.87 102.785 169.27 102.785Z" fill="#AAAAAA"></path>
<path fill-rule="evenodd" clip-rule="evenodd" d="M138.463 66.4491L125.407 102.209H129.439L132.559 93.4731H148.543L151.615 102.209H155.647L142.591 66.4491H138.463ZM147.199 89.8731H133.807L140.525 70.9565L147.199 89.8731Z" fill="#AAAAAA"></path>
</svg>