<svg width="240" height="40" viewBox="0 0 240 40" fill="none" xmlns="http://www.w3.org/2000/svg">
<path fill-rule="evenodd" clip-rule="evenodd" d="M39.0765 32.4161L39.0734 32.4127C40.345 31.3546 41.2352 29.9118 41.6077 28.3033L41.6138 28.277L45.854 6.63149C46.0444 5.8362 46.0487 5.00775 45.8662 4.21023C45.6805 3.39878 45.3067 2.64182 44.7745 1.99977C44.2423 1.35763 43.5666 0.848482 42.8014 0.512714C42.0505 0.183181 41.2336 0.0294614 40.4137 0.0635486L18.2144 0L18.1865 0.000891283C16.508 0.0544321 14.8944 0.659287 13.5977 1.72146C13.2722 1.98807 12.9713 2.27972 12.6972 2.5928L6.77342 7.79045C5.55769 8.83344 4.71923 10.2442 4.38635 11.8068L4.38371 11.8192L2.67324 20.5274C2.57801 20.9525 2.58162 21.3943 2.68501 21.8191C2.76295 22.1392 2.89587 22.4431 3.07759 22.7175L2.99388 22.7893C2.40644 23.2934 2.0051 23.9782 1.85325 24.7349L0.146164 33.4268C-0.0445821 34.2225 -0.0485374 35.0516 0.133734 35.8489C0.31946 36.66 0.693159 37.4169 1.22542 38.059C1.75765 38.7013 2.43349 39.2104 3.1985 39.5462C3.95022 39.8761 4.76812 40.0298 5.58891 39.9952H27.7613L27.7763 39.995C29.5644 39.9616 31.2797 39.2859 32.6063 38.0931L39.0765 32.4161ZM41.7667 2.37729C41.2324 2.14166 40.6504 2.03417 40.0672 2.0636L17.961 2C16.642 2.04228 15.3741 2.51994 14.3552 3.35864C13.3363 4.19735 12.6238 5.34976 12.3289 6.63603L10.6241 15.3986C10.578 15.5911 10.5783 15.7919 10.6249 15.9843C10.6715 16.1767 10.7631 16.3554 10.8922 16.5055C11.0213 16.6556 11.1842 16.7728 11.3675 16.8476C11.5508 16.9225 11.7493 16.9529 11.9465 16.9361C16.0565 16.9171 20.1443 16.3326 24.095 15.1994L26.8194 10.189C26.8858 10.0641 26.9843 9.95922 27.1047 9.88503C27.2251 9.81083 27.3631 9.77001 27.5045 9.76678C27.6276 9.76133 27.7484 9.80133 27.8439 9.87919C27.9394 9.95705 28.0029 10.0673 28.0223 10.189L28.8189 15.1994L33.5987 16.9122C33.7147 16.9539 33.8109 17.0375 33.8684 17.1465C33.9258 17.2556 33.9405 17.3824 33.9093 17.5017C33.8786 17.6366 33.8132 17.7612 33.7196 17.8632C33.626 17.9652 33.5074 18.041 33.3756 18.0832L27.9267 19.8037L25.2023 24.8143C25.1348 24.9377 25.0359 25.0411 24.9155 25.1138C24.7952 25.1866 24.6578 25.2261 24.5172 25.2286C24.3948 25.2361 24.2741 25.1978 24.1784 25.1212C24.0827 25.0447 24.0189 24.9353 23.9994 24.8143L23.2028 19.8037C19.5941 18.5053 15.7225 18.2026 11.6916 18.0592C11.2526 18.0723 10.8301 18.2302 10.4901 18.5083C10.1501 18.7864 9.91155 19.1689 9.81159 19.5966L8.10682 28.3591C7.96844 28.9266 7.96445 29.5186 8.09519 30.0879C8.22594 30.6571 8.48781 31.188 8.85992 31.6383C9.23203 32.0885 9.70411 32.4457 10.2386 32.6813C10.7731 32.9169 11.3552 33.0244 11.9386 32.9954H34.0288C35.3488 32.9535 36.6179 32.4759 37.6381 31.6373C38.6583 30.7987 39.3724 29.646 39.6689 28.3591L43.891 6.69982C44.0309 6.13289 44.0362 5.54103 43.9066 4.97166C43.7769 4.4023 43.5159 3.87117 43.1444 3.42068C42.7728 2.97019 42.301 2.61293 41.7667 2.37729Z" fill="#86EE02"></path>
<path d="M175.954 31.0029C171.858 31.0029 168.953 29.3326 168.037 26.1812L173.392 23.7547C173.773 25.0468 174.883 25.6455 176.899 25.6455C178.467 25.6455 179.734 25.1728 179.912 24.1644C180.134 22.9038 178.888 22.7147 176.986 22.4311C173.837 21.9584 169.318 20.7294 170.212 15.6556C170.902 11.7479 174.981 8.75409 179.781 8.75409C183.557 8.75409 186.463 10.4243 187.379 13.5757L182.023 16.0023C181.599 14.9623 180.597 14.1114 178.581 14.1114C177.173 14.1114 176.327 14.5526 176.171 15.435C175.96 16.6326 177.302 17.0107 179.358 17.3259C182.475 17.7986 186.743 18.9961 185.843 24.1013C185.154 28.0091 180.754 31.0029 175.954 31.0029Z" fill="#86EE02"></path>
<path d="M208.499 30.4986H214.515L219.245 15.4665L220.442 27.9145C220.606 29.7108 222.05 30.5932 223.81 30.5932C225.602 30.5932 227.267 29.6793 228.145 27.7885L233.736 15.4981L232.819 30.4986H238.803L239.377 12.7248C239.448 10.1407 237.965 8.75409 235.437 8.75409C233.133 8.75409 230.998 9.79405 229.973 12.1576L225.088 23.345L224.133 12.063C223.942 9.69951 222.221 8.75409 219.981 8.75409C217.389 8.75409 215.358 10.1092 214.497 12.6303L208.499 30.4986Z" fill="#86EE02"></path>
<path d="M188.43 20.8869C187.318 27.1897 189.708 30.8768 196.492 30.8768C203.244 30.8768 206.998 27.1897 208.11 20.8869L210.166 9.22681H204.246L202.218 20.7294C201.64 24.0068 200.121 25.3619 197.465 25.3619C194.841 25.3619 193.8 24.0068 194.378 20.7294L196.406 9.22681H190.486L188.43 20.8869Z" fill="#86EE02"></path>
<path fill-rule="evenodd" clip-rule="evenodd" d="M148.15 30.4987L154.076 30.4671L154.987 25.2989H157.675C163.947 25.2989 168.032 22.2735 168.933 17.1683C169.805 12.2206 166.589 9.22681 160.189 9.22681H151.901L148.15 30.4987ZM156.876 14.5842H159.404C161.964 14.5842 163.147 15.4981 162.853 17.1683C162.536 18.9646 161.116 19.9415 158.46 19.9415H155.932L156.876 14.5842Z" fill="#86EE02"></path>
<path d="M142.15 9.22681H148.07L144.319 30.4987H138.399L142.15 9.22681Z" fill="#86EE02"></path>
<path fill-rule="evenodd" clip-rule="evenodd" d="M115.233 19.8785C114.116 26.2127 118.141 30.9713 124.669 30.9713C131.197 30.9713 136.9 26.2127 138.017 19.8785C139.134 13.5442 135.109 8.78558 128.581 8.78558C122.053 8.78558 116.35 13.5442 115.233 19.8785ZM131.937 19.8785C131.381 23.0298 128.649 25.4564 125.641 25.4564C122.633 25.4564 120.757 23.0298 121.313 19.8785C121.868 16.7271 124.6 14.3005 127.608 14.3005C130.616 14.3005 132.492 16.7271 131.937 19.8785Z" fill="#86EE02"></path>
<path d="M102.855 30.9713C96.3909 30.9713 92.3242 26.0867 93.4189 19.8785C94.5136 13.6702 100.239 8.78558 106.767 8.78558C110.607 8.78558 114.038 10.7394 114.978 14.3005L109.68 16.9477C109.067 15.3405 108.04 14.269 105.544 14.269C102.504 14.269 100.071 16.6325 99.4822 19.973C98.8654 23.471 100.519 25.7085 103.783 25.7085C105.511 25.7085 106.627 25.5509 107.699 24.7316L108.195 21.8007L102.656 19.353H114.351L114.187 20.3512H114.2L114.017 21.3868L114.006 21.4551L114.005 21.4556L113.088 26.6539C110.98 29.175 107.207 30.9713 102.855 30.9713Z" fill="#86EE02"></path>
<path fill-rule="evenodd" clip-rule="evenodd" d="M69.9801 19.8785C68.8632 26.2127 72.8882 30.9713 79.4162 30.9713C85.9442 30.9713 91.6472 26.2127 92.7641 19.8785C93.881 13.5442 89.8561 8.78558 83.3281 8.78558C76.8001 8.78558 71.097 13.5442 69.9801 19.8785ZM86.6841 19.8785C86.1285 23.0298 83.3966 25.4564 80.3886 25.4564C77.3806 25.4564 75.5045 23.0298 76.0601 19.8785C76.6158 16.7271 79.3477 14.3005 82.3557 14.3005C85.3637 14.3005 87.2398 16.7271 86.6841 19.8785Z" fill="#86EE02"></path>
<path d="M62.3146 9.22681L59.5084 25.1413H69.0444L68.0998 30.4987H57.7638C54.1158 30.4987 52.9772 28.6078 53.5051 25.614L56.3946 9.22681H62.3146Z" fill="#86EE02"></path>
</svg>